<svg width="12" height="11" viewBox="0 0 12 11" fill="none" xmlns="http://www.w3.org/2000/svg">
<path d="M5.95298 10.3896C5.90195 10.3896 5.85019 10.3796 5.79917 10.3599C1.17051 8.55847 -0.405422 5.24493 0.0860329 2.76025C0.41367 1.08344 1.63388 0 3.19443 0C4.07383 0 5.02768 0.356018 5.95298 1.0296C6.87778 0.368958 7.8248 0.0197754 8.69077 0.0197754C10.2403 0.0197754 11.4605 1.09125 11.7994 2.74951C12.2904 5.21246 10.7208 8.52087 6.10703 10.3599C6.05576 10.3796 6.004 10.3896 5.95298 10.3896ZM3.19443 0.809998C2.05259 0.809998 1.15464 1.63416 0.906834 2.90967C0.488865 5.02716 1.88706 7.8985 5.95298 9.53998C8.87168 8.33649 11.5582 5.81958 10.9786 2.90967C10.7225 1.65222 9.82456 0.839661 8.69077 0.839661C7.92514 0.839661 7.06723 1.19263 6.20957 1.86029C6.13511 1.91815 6.04209 1.95001 5.94809 1.95001C5.85386 1.95001 5.76108 1.91815 5.68662 1.86029C4.82822 1.17322 3.9664 0.809998 3.19443 0.809998Z" fill="#AAB2B7"/>
</svg>
