<svg width="20" height="21" viewBox="0 0 20 21" fill="none" xmlns="http://www.w3.org/2000/svg">
<path d="M9 5.29159H11V7.37492H9V5.29159ZM9 9.45825H11V15.7083H9V9.45825ZM10 0.083252C4.48 0.083252 0 4.74992 0 10.4999C0 16.2499 4.48 20.9166 10 20.9166C15.52 20.9166 20 16.2499 20 10.4999C20 4.74992 15.52 0.083252 10 0.083252ZM10 18.8333C5.59 18.8333 2 15.0937 2 10.4999C2 5.90617 5.59 2.16659 10 2.16659C14.41 2.16659 18 5.90617 18 10.4999C18 15.0937 14.41 18.8333 10 18.8333Z" fill="#9699A0"/>
</svg>
