<svg width="28" height="46" viewBox="0 0 28 46" fill="none" xmlns="http://www.w3.org/2000/svg">
<path d="M1.1205 45.232L2.53471 43.8178H2.53471L1.1205 45.232ZM1.1205 41.136L2.47195 42.6103L2.47195 42.6103L1.1205 41.136ZM11.0405 40.432V42.432H13.0405V40.432H11.0405ZM11.0405 6.384V4.384H9.0405V6.384H11.0405ZM14.3685 6.384L15.443 8.07085L21.231 4.384H14.3685V6.384ZM5.0245 12.336L6.00502 14.0792L6.05278 14.0523L6.099 14.0228L5.0245 12.336ZM3.1045 12.784L2.80039 14.7607L2.81101 14.7624L2.82165 14.7639L3.1045 12.784ZM1.6325 12.08L0.218287 13.4942L0.255477 13.5314L0.29457 13.5666L1.6325 12.08ZM0.8005 10.672L-1.14828 11.1217L-1.13215 11.1916L-1.11106 11.2602L0.8005 10.672ZM0.9285 8.944L-0.90979 8.15616L-0.934169 8.21304L-0.954985 8.27133L0.9285 8.944ZM2.2725 7.472L3.30149 9.18698L3.32042 9.17562L3.3391 9.16385L2.2725 7.472ZM11.1045 1.904L10.0905 0.180134L10.0639 0.195736L10.0379 0.212149L11.1045 1.904ZM13.1525 0.879997L13.8953 2.73695L13.9249 2.7251L13.9541 2.71231L13.1525 0.879997ZM16.8645 1.072L15.5192 2.55188L15.589 2.61537L15.6645 2.672L16.8645 1.072ZM17.6325 40.432H15.6325V42.432H17.6325V40.432ZM26.9765 45.296L28.3279 46.7703L28.36 46.7409L28.3907 46.7102L26.9765 45.296ZM3.2325 44C2.73346 44 2.58677 43.8698 2.53471 43.8178L-0.293713 46.6462C0.678233 47.6182 1.93954 48 3.2325 48V44ZM2.53471 43.8178C2.46418 43.7473 2.3525 43.6088 2.3525 43.184H-1.6475C-1.6475 44.4658 -1.24718 45.6927 -0.293713 46.6462L2.53471 43.8178ZM2.3525 43.184C2.3525 42.9228 2.39018 42.7742 2.41716 42.7022C2.44027 42.6406 2.45963 42.6216 2.47195 42.6103L-0.230948 39.6617C-1.26811 40.6124 -1.6475 41.8997 -1.6475 43.184H2.3525ZM2.47195 42.6103C2.51788 42.5682 2.68719 42.432 3.2325 42.432V38.432C1.98581 38.432 0.747123 38.7651 -0.230949 39.6617L2.47195 42.6103ZM3.2325 42.432H11.0405V38.432H3.2325V42.432ZM13.0405 40.432V6.384H9.0405V40.432H13.0405ZM11.0405 8.384H14.3685V4.384H11.0405V8.384ZM13.294 4.69715L3.95 10.6492L6.099 14.0228L15.443 8.07085L13.294 4.69715ZM4.04398 10.5928C3.62999 10.8257 3.43435 10.8108 3.38735 10.8041L2.82165 14.7639C3.96932 14.9278 5.05367 14.6143 6.00502 14.0792L4.04398 10.5928ZM3.40861 10.8073C3.24815 10.7826 3.11459 10.7232 2.97043 10.5934L0.29457 13.5666C1.00374 14.2048 1.85151 14.6148 2.80039 14.7607L3.40861 10.8073ZM3.04671 10.6658C2.90913 10.5282 2.79356 10.3487 2.71206 10.0838L-1.11106 11.2602C-0.851226 12.1046 -0.412125 12.8638 0.218287 13.4942L3.04671 10.6658ZM2.74928 10.2223C2.71691 10.082 2.7121 9.89635 2.81199 9.61667L-0.954985 8.27133C-1.28177 9.18632 -1.37191 10.1527 -1.14828 11.1217L2.74928 10.2223ZM2.76679 9.73183C2.83337 9.57649 2.96646 9.388 3.30149 9.18698L1.24351 5.75701C0.298539 6.32399 -0.464367 7.11684 -0.90979 8.15616L2.76679 9.73183ZM3.3391 9.16385L12.1711 3.59585L10.0379 0.212149L1.2059 5.78015L3.3391 9.16385ZM12.1185 3.62786C12.7752 3.24161 13.3667 2.94838 13.8953 2.73695L12.4097 -0.976957C11.6583 -0.67639 10.8845 -0.286953 10.0905 0.180134L12.1185 3.62786ZM13.9541 2.71231C14.4446 2.49771 14.8104 2.432 15.0725 2.432V-1.568C14.14 -1.568 13.2257 -1.33505 12.3509 -0.952318L13.9541 2.71231ZM15.0725 2.432C15.3768 2.432 15.4709 2.508 15.5192 2.55188L18.2098 -0.407883C17.3195 -1.21733 16.2189 -1.568 15.0725 -1.568V2.432ZM15.6645 2.672C15.6335 2.64874 15.6073 2.6214 15.5887 2.59615C15.571 2.57204 15.5692 2.562 15.5754 2.57799C15.5905 2.61716 15.6325 2.75812 15.6325 3.056H19.6325C19.6325 1.79509 19.2835 0.386272 18.0645 -0.528002L15.6645 2.672ZM15.6325 3.056V40.432H19.6325V3.056H15.6325ZM17.6325 42.432H24.8005V38.432H17.6325V42.432ZM24.8005 42.432C25.4173 42.432 25.5952 42.5829 25.6251 42.6103L28.3279 39.6617C27.3338 38.7504 26.0611 38.432 24.8005 38.432V42.432ZM25.6251 42.6103C25.6374 42.6216 25.6567 42.6406 25.6798 42.7022C25.7068 42.7742 25.7445 42.9228 25.7445 43.184H29.7445C29.7445 41.8997 29.3651 40.6124 28.3279 39.6617L25.6251 42.6103ZM25.7445 43.184C25.7445 43.683 25.6143 43.8297 25.5623 43.8818L28.3907 46.7102C29.3627 45.7383 29.7445 44.477 29.7445 43.184H25.7445ZM25.6251 43.8217C25.5952 43.8491 25.4173 44 24.8005 44V48C26.0611 48 27.3338 47.6816 28.3279 46.7703L25.6251 43.8217ZM24.8005 44H3.2325V48H24.8005V44Z" fill="white"/>
</svg>
