<svg width="40" height="40" viewBox="0 0 40 40" fill="none" xmlns="http://www.w3.org/2000/svg">
<path d="M15.9583 27.0834L27.0833 20L15.9583 12.9167V27.0834ZM19.9999 36.6667C17.7221 36.6667 15.5694 36.2292 13.5416 35.3542C11.5138 34.4792 9.74297 33.2848 8.22908 31.7709C6.7152 30.257 5.52075 28.4862 4.64575 26.4584C3.77075 24.4306 3.33325 22.2778 3.33325 20C3.33325 17.6945 3.77075 15.5278 4.64575 13.5C5.52075 11.4723 6.7152 9.70837 8.22908 8.20837C9.74297 6.70837 11.5138 5.52087 13.5416 4.64587C15.5694 3.77087 17.7221 3.33337 19.9999 3.33337C22.3055 3.33337 24.4721 3.77087 26.4999 4.64587C28.5277 5.52087 30.2916 6.70837 31.7916 8.20837C33.2916 9.70837 34.4791 11.4723 35.3541 13.5C36.2291 15.5278 36.6666 17.6945 36.6666 20C36.6666 22.2778 36.2291 24.4306 35.3541 26.4584C34.4791 28.4862 33.2916 30.257 31.7916 31.7709C30.2916 33.2848 28.5277 34.4792 26.4999 35.3542C24.4721 36.2292 22.3055 36.6667 19.9999 36.6667ZM19.9999 34.1667C23.9444 34.1667 27.2916 32.7848 30.0416 30.0209C32.7916 27.257 34.1666 23.9167 34.1666 20C34.1666 16.0556 32.7916 12.7084 30.0416 9.95837C27.2916 7.20837 23.9444 5.83337 19.9999 5.83337C16.0833 5.83337 12.743 7.20837 9.97908 9.95837C7.2152 12.7084 5.83325 16.0556 5.83325 20C5.83325 23.9167 7.2152 27.257 9.97908 30.0209C12.743 32.7848 16.0833 34.1667 19.9999 34.1667Z" fill="white"/>
</svg>
