<svg width="20" height="18" viewBox="0 0 20 18" fill="none" xmlns="http://www.w3.org/2000/svg">
<path d="M16.349 17.034C15.5244 17.034 14.8234 16.8014 14.2462 16.3362C13.6689 15.8709 13.3803 15.306 13.3803 14.6413C13.3803 14.5483 13.3933 14.4345 13.4194 14.2999C13.4454 14.1654 13.4845 14.0443 13.5365 13.9367L5.64591 10.2534C5.3855 10.4906 5.06432 10.6824 4.68237 10.8289C4.30043 10.9754 3.9098 11.0487 3.5105 11.0487C2.68585 11.0487 1.98489 10.8167 1.40763 10.3528C0.830377 9.88891 0.541748 9.3256 0.541748 8.66288C0.541748 8.00017 0.830377 7.43686 1.40763 6.97296C1.98489 6.50906 2.68585 6.27711 3.5105 6.27711C3.9098 6.27711 4.29175 6.33989 4.65633 6.46546C5.02091 6.59103 5.35078 6.7724 5.64591 7.00958L13.5365 3.36814C13.4845 3.26949 13.4454 3.15849 13.4194 3.03516C13.3933 2.91184 13.3803 2.79262 13.3803 2.67752C13.3803 2.01481 13.6689 1.4515 14.2462 0.987599C14.8234 0.523698 15.5244 0.291748 16.349 0.291748C17.1737 0.291748 17.8746 0.523698 18.4519 0.987599C19.0292 1.4515 19.3178 2.01481 19.3178 2.67752C19.3178 3.34024 19.0292 3.90354 18.4519 4.36744C17.8746 4.83134 17.1737 5.06329 16.349 5.06329C15.9436 5.06329 15.5558 5.01098 15.1856 4.90634C14.8154 4.8017 14.5001 4.63079 14.2397 4.3936L6.34904 7.90948C6.38376 8.0211 6.41414 8.15015 6.44019 8.29665C6.46623 8.44314 6.47925 8.5669 6.47925 8.66793C6.47925 8.76897 6.46623 8.87361 6.44019 8.98184C6.41414 9.0901 6.38376 9.20003 6.34904 9.31165L14.2397 12.9112C14.5001 12.7159 14.8039 12.5589 15.1511 12.4404C15.4983 12.3218 15.8977 12.2625 16.349 12.2625C17.1737 12.2625 17.8746 12.4944 18.4519 12.9583C19.0292 13.4222 19.3178 13.9855 19.3178 14.6482C19.3178 15.311 19.0292 15.8743 18.4519 16.3382C17.8746 16.8021 17.1737 17.034 16.349 17.034ZM16.3499 3.80762C16.7486 3.80762 17.0825 3.69925 17.3516 3.48251C17.6207 3.26577 17.7553 2.99719 17.7553 2.67679C17.7553 2.35638 17.6204 2.08805 17.3507 1.8718C17.081 1.65555 16.7468 1.54742 16.3481 1.54742C15.9494 1.54742 15.6155 1.65579 15.3464 1.87253C15.0773 2.08927 14.9428 2.35785 14.9428 2.67825C14.9428 2.99866 15.0776 3.26699 15.3473 3.48324C15.6171 3.6995 15.9513 3.80762 16.3499 3.80762ZM3.51141 9.79299C3.91011 9.79299 4.244 9.68462 4.5131 9.46787C4.7822 9.25113 4.91675 8.98256 4.91675 8.66215C4.91675 8.34175 4.7819 8.07342 4.51219 7.85716C4.24249 7.64091 3.90828 7.53278 3.50959 7.53278C3.11089 7.53278 2.77699 7.64115 2.50789 7.85789C2.2388 8.07464 2.10425 8.34321 2.10425 8.66362C2.10425 8.98402 2.2391 9.25235 2.50881 9.46861C2.77851 9.68486 3.11271 9.79299 3.51141 9.79299ZM16.3499 15.7783C16.7486 15.7783 17.0825 15.67 17.3516 15.4532C17.6207 15.2365 17.7553 14.9679 17.7553 14.6475C17.7553 14.3271 17.6204 14.0588 17.3507 13.8425C17.081 13.6263 16.7468 13.5181 16.3481 13.5181C15.9494 13.5181 15.6155 13.6265 15.3464 13.8433C15.0773 14.06 14.9428 14.3286 14.9428 14.649C14.9428 14.9694 15.0776 15.2377 15.3473 15.454C15.6171 15.6702 15.9513 15.7783 16.3499 15.7783Z" fill="#9699A0"/>
</svg>
