<svg width="23" height="24" viewBox="0 0 23 24" fill="none" xmlns="http://www.w3.org/2000/svg">
<path d="M11.5021 11.75C11.9638 11.75 12.3584 11.5784 12.6859 11.2353C13.0133 10.8921 13.177 10.4796 13.177 9.99778C13.177 9.51593 13.0126 9.10417 12.6837 8.7625C12.3549 8.42083 11.9596 8.25 11.4978 8.25C11.036 8.25 10.6414 8.42158 10.314 8.76472C9.98655 9.10786 9.82284 9.52036 9.82284 10.0022C9.82284 10.4841 9.98726 10.8958 10.3161 11.2375C10.6449 11.5792 11.0403 11.75 11.5021 11.75ZM11.4999 20.025C13.6242 18.0083 15.1935 16.1792 16.2077 14.5375C17.222 12.8958 17.7291 11.45 17.7291 10.2C17.7291 8.23683 17.1278 6.62938 15.9252 5.37763C14.7227 4.12588 13.2476 3.5 11.4999 3.5C9.75229 3.5 8.27719 4.12588 7.07462 5.37763C5.87204 6.62938 5.27075 8.23683 5.27075 10.2C5.27075 11.45 5.78985 12.8958 6.82804 14.5375C7.86624 16.1792 9.42353 18.0083 11.4999 20.025ZM11.4999 22C8.92839 19.7167 7.00773 17.5958 5.73794 15.6375C4.46815 13.6792 3.83325 11.8667 3.83325 10.2C3.83325 7.7 4.60391 5.70833 6.14523 4.225C7.68655 2.74167 9.47145 2 11.4999 2C13.5284 2 15.3133 2.74167 16.8546 4.225C18.3959 5.70833 19.1666 7.7 19.1666 10.2C19.1666 11.8667 18.5317 13.6792 17.2619 15.6375C15.9921 17.5958 14.0714 19.7167 11.4999 22Z" fill="#00A962"/>
</svg>
