<svg width="22" height="22" viewBox="0 0 22 22" fill="none" xmlns="http://www.w3.org/2000/svg">
<path d="M10.25 21.95V20.075C7.96672 19.8417 6.06672 18.9667 4.55005 17.45C3.03338 15.9333 2.15838 14.0333 1.92505 11.75H0.0500488V10.25H1.92505C2.15838 7.96667 3.03338 6.06667 4.55005 4.55C6.06672 3.03333 7.96672 2.15833 10.25 1.925V0.0499992H11.75V1.925C14.0334 2.15833 15.9334 3.03333 17.45 4.55C18.9667 6.06667 19.8417 7.96667 20.075 10.25H21.95V11.75H20.075C19.8417 14.0333 18.9667 15.9333 17.45 17.45C15.9334 18.9667 14.0334 19.8417 11.75 20.075V21.95H10.25ZM11 18.6C13.0834 18.6 14.8709 17.8542 16.3625 16.3625C17.8542 14.8708 18.6 13.0833 18.6 11C18.6 8.91667 17.8542 7.12917 16.3625 5.6375C14.8709 4.14583 13.0834 3.4 11 3.4C8.91672 3.4 7.12922 4.14583 5.63755 5.6375C4.14588 7.12917 3.40005 8.91667 3.40005 11C3.40005 13.0833 4.14588 14.8708 5.63755 16.3625C7.12922 17.8542 8.91672 18.6 11 18.6ZM11 14.75C9.95005 14.75 9.06255 14.3875 8.33755 13.6625C7.61255 12.9375 7.25005 12.05 7.25005 11C7.25005 9.95 7.61255 9.0625 8.33755 8.3375C9.06255 7.6125 9.95005 7.25 11 7.25C12.05 7.25 12.9375 7.6125 13.6625 8.3375C14.3875 9.0625 14.75 9.95 14.75 11C14.75 12.05 14.3875 12.9375 13.6625 13.6625C12.9375 14.3875 12.05 14.75 11 14.75ZM11 13.25C11.6334 13.25 12.1667 13.0333 12.6 12.6C13.0334 12.1667 13.25 11.6333 13.25 11C13.25 10.3667 13.0334 9.83333 12.6 9.4C12.1667 8.96667 11.6334 8.75 11 8.75C10.3667 8.75 9.83338 8.96667 9.40005 9.4C8.96672 9.83333 8.75005 10.3667 8.75005 11C8.75005 11.6333 8.96672 12.1667 9.40005 12.6C9.83338 13.0333 10.3667 13.25 11 13.25Z" fill="white"/>
</svg>
