<svg width="14" height="16" viewBox="0 0 14 16" fill="none" xmlns="http://www.w3.org/2000/svg">
<path d="M7 0.5C3.4118 0.503835 0.503989 3.2998 0.5 6.74998C0.500001 11.0812 6.493 15.2471 6.74819 15.4224C6.89882 15.5259 7.10113 15.5259 7.25177 15.4224C7.507 15.2471 13.5 11.0812 13.5 6.74998C13.496 3.2998 10.5882 0.503835 7 0.5ZM11.9782 9.17331C9.98484 13.0892 4.01516 13.0892 2.0218 9.17331C1.6201 8.38421 1.36667 7.56385 1.36667 6.74998C1.36667 3.75844 3.8888 1.33333 7 1.33333C10.1112 1.33333 12.6333 3.75845 12.6333 6.74998C12.6333 7.56385 12.3799 8.38421 11.9782 9.17331ZM7 4.24999C5.56406 4.24999 4.4 5.36927 4.4 6.74998C4.4 8.13068 5.56406 9.24997 7 9.24997C8.43594 9.24997 9.6 8.13068 9.6 6.74998C9.59842 5.3699 8.43529 4.2515 7 4.24999ZM7 8.41664C6.04271 8.41664 5.26667 7.67045 5.26667 6.74998C5.26667 5.82951 6.04271 5.08332 7 5.08332C7.95729 5.08332 8.73333 5.82951 8.73333 6.74998C8.73231 7.67004 7.95687 8.41565 7 8.41664Z" fill="black"/>
</svg>
