<svg width="335" height="15" viewBox="0 0 335 15" fill="none" xmlns="http://www.w3.org/2000/svg">
<path d="M5 2.5C5 1.11929 6.11929 0 7.5 0H327.5C328.881 0 330 1.11929 330 2.5C330 3.88071 328.881 5 327.5 5H7.50001C6.1193 5 5 3.88071 5 2.5Z" fill="url(#paint0_linear_161_197)"/>
<g filter="url(#filter0_d_161_197)">
<path d="M5 2.5C5 1.11929 6.11929 0 7.5 0H327.5C328.881 0 330 1.11929 330 2.5C330 3.88071 328.881 5 327.5 5H7.50001C6.1193 5 5 3.88071 5 2.5Z" fill="url(#paint1_linear_161_197)"/>
</g>
<defs>
<filter id="filter0_d_161_197" x="0" y="0" width="335" height="15" filterUnits="userSpaceOnUse" color-interpolation-filters="sRGB">
<feFlood flood-opacity="0" result="BackgroundImageFix"/>
<feColorMatrix in="SourceAlpha" type="matrix" values="0 0 0 0 0 0 0 0 0 0 0 0 0 0 0 0 0 0 127 0" result="hardAlpha"/>
<feOffset dy="5"/>
<feGaussianBlur stdDeviation="2.5"/>
<feComposite in2="hardAlpha" operator="out"/>
<feColorMatrix type="matrix" values="0 0 0 0 0 0 0 0 0 0 0 0 0 0 0 0 0 0 0.301961 0"/>
<feBlend mode="normal" in2="BackgroundImageFix" result="effect1_dropShadow_161_197"/>
<feBlend mode="normal" in="SourceGraphic" in2="effect1_dropShadow_161_197" result="shape"/>
</filter>
<linearGradient id="paint0_linear_161_197" x1="330" y1="5" x2="-11" y2="5" gradientUnits="userSpaceOnUse">
<stop stop-color="#5464C2"/>
<stop offset="1" stop-color="#14BC66"/>
</linearGradient>
<linearGradient id="paint1_linear_161_197" x1="330" y1="5" x2="-11" y2="5" gradientUnits="userSpaceOnUse">
<stop stop-color="#5464C2"/>
<stop offset="1" stop-color="#14BC66"/>
</linearGradient>
</defs>
</svg>
