<svg width="25" height="24" viewBox="0 0 25 24" fill="none" xmlns="http://www.w3.org/2000/svg">
<g clip-path="url(#clip0_425_1835)">
<path d="M19.7917 4H18.75V2H16.6667V4H8.33333V2H6.25V4H5.20833C4.05208 4 3.13542 4.9 3.13542 6L3.125 20C3.125 21.1 4.05208 22 5.20833 22H19.7917C20.9375 22 21.875 21.1 21.875 20V6C21.875 4.9 20.9375 4 19.7917 4ZM19.7917 20H5.20833V10H19.7917V20ZM19.7917 8H5.20833V6H19.7917V8ZM9.375 14H7.29167V12H9.375V14ZM13.5417 14H11.4583V12H13.5417V14ZM17.7083 14H15.625V12H17.7083V14ZM9.375 18H7.29167V16H9.375V18ZM13.5417 18H11.4583V16H13.5417V18ZM17.7083 18H15.625V16H17.7083V18Z" fill="#778087"/>
</g>
<defs>
<clipPath id="clip0_425_1835">
<rect width="25" height="24" fill="white"/>
</clipPath>
</defs>
</svg>
