<svg width="23" height="24" viewBox="0 0 23 24" fill="none" xmlns="http://www.w3.org/2000/svg">
<path d="M11.5022 11.75C11.9639 11.75 12.3585 11.5784 12.686 11.2353C13.0134 10.8921 13.1771 10.4796 13.1771 9.99778C13.1771 9.51593 13.0127 9.10417 12.6838 8.7625C12.355 8.42083 11.9597 8.25 11.4979 8.25C11.0361 8.25 10.6415 8.42158 10.3141 8.76472C9.98667 9.10786 9.82296 9.52036 9.82296 10.0022C9.82296 10.4841 9.98738 10.8958 10.3162 11.2375C10.6451 11.5792 11.0404 11.75 11.5022 11.75ZM11.5 20.025C13.6243 18.0083 15.1936 16.1792 16.2079 14.5375C17.2221 12.8958 17.7292 11.45 17.7292 10.2C17.7292 8.23683 17.1279 6.62938 15.9253 5.37763C14.7228 4.12588 13.2477 3.5 11.5 3.5C9.75241 3.5 8.27731 4.12588 7.07474 5.37763C5.87216 6.62938 5.27087 8.23683 5.27087 10.2C5.27087 11.45 5.78997 12.8958 6.82817 14.5375C7.86636 16.1792 9.42365 18.0083 11.5 20.025ZM11.5 22C8.92851 19.7167 7.00785 17.5958 5.73806 15.6375C4.46827 13.6792 3.83337 11.8667 3.83337 10.2C3.83337 7.7 4.60403 5.70833 6.14535 4.225C7.68667 2.74167 9.47157 2 11.5 2C13.5285 2 15.3134 2.74167 16.8547 4.225C18.396 5.70833 19.1667 7.7 19.1667 10.2C19.1667 11.8667 18.5318 13.6792 17.262 15.6375C15.9922 17.5958 14.0716 19.7167 11.5 22Z" fill="#9699A0"/>
</svg>
