<svg width="19" height="18" viewBox="0 0 19 18" fill="none" xmlns="http://www.w3.org/2000/svg">
<path d="M7.91146 12.975L15.4375 5.75L14.3177 4.675L7.91146 10.825L4.8125 7.85L3.69271 8.925L7.91146 12.975ZM1.6875 18C1.27083 18 0.90625 17.85 0.59375 17.55C0.28125 17.25 0.125 16.9 0.125 16.5V1.5C0.125 1.1 0.28125 0.75 0.59375 0.45C0.90625 0.15 1.27083 0 1.6875 0H17.3125C17.7292 0 18.0938 0.15 18.4062 0.45C18.7188 0.75 18.875 1.1 18.875 1.5V16.5C18.875 16.9 18.7188 17.25 18.4062 17.55C18.0938 17.85 17.7292 18 17.3125 18H1.6875ZM1.6875 16.5H17.3125V1.5H1.6875V16.5Z" fill="#00A962"/>
</svg>
