<?xml version="1.0" encoding="UTF-8"?>
<svg xmlns="http://www.w3.org/2000/svg" xmlns:xlink="http://www.w3.org/1999/xlink" width="25px" height="25px" viewBox="0 0 25 25" version="1.1">
<defs>
<filter id="alpha" filterUnits="objectBoundingBox" x="0%" y="0%" width="100%" height="100%">
  <feColorMatrix type="matrix" in="SourceGraphic" values="0 0 0 0 1 0 0 0 0 1 0 0 0 0 1 0 0 0 1 0"/>
</filter>
<mask id="mask0">
  <g filter="url(#alpha)">
<rect x="0" y="0" width="25" height="25" style="fill:rgb(0%,0%,0%);fill-opacity:0.545098;stroke:none;"/>
  </g>
</mask>
<clipPath id="clip1">
  <rect x="0" y="0" width="25" height="25"/>
</clipPath>
<g id="surface5" clip-path="url(#clip1)">
<path style=" stroke:none;fill-rule:evenodd;fill:#00A962;fill-opacity:1;" d="M 21.226562 3.773438 C 21.355469 3.742188 21.5 3.726562 21.648438 3.726562 C 21.871094 3.714844 22.082031 3.75 22.273438 3.824219 C 21.925781 3.792969 21.574219 3.773438 21.226562 3.773438 Z M 21.226562 3.773438 "/>
</g>
<mask id="mask1">
  <g filter="url(#alpha)">
<rect x="0" y="0" width="25" height="25" style="fill:rgb(0%,0%,0%);fill-opacity:0.717647;stroke:none;"/>
  </g>
</mask>
<clipPath id="clip2">
  <rect x="0" y="0" width="25" height="25"/>
</clipPath>
<g id="surface8" clip-path="url(#clip2)">
<path style=" stroke:none;fill-rule:evenodd;fill:#00A962;fill-opacity:1;" d="M 20.425781 4.125 C 20.371094 4.230469 20.289062 4.296875 20.175781 4.324219 C 20.230469 4.21875 20.3125 4.152344 20.425781 4.125 Z M 20.425781 4.125 "/>
</g>
<mask id="mask2">
  <g filter="url(#alpha)">
<rect x="0" y="0" width="25" height="25" style="fill:rgb(0%,0%,0%);fill-opacity:0.537255;stroke:none;"/>
  </g>
</mask>
<clipPath id="clip3">
  <rect x="0" y="0" width="25" height="25"/>
</clipPath>
<g id="surface11" clip-path="url(#clip3)">
<path style=" stroke:none;fill-rule:evenodd;fill:rgb(51.372549%,51.372549%,51.372549%);fill-opacity:1;" d="M 23.324219 4.523438 C 23.394531 4.546875 23.429688 4.597656 23.425781 4.675781 C 23.355469 4.652344 23.320312 4.601562 23.324219 4.523438 Z M 23.324219 4.523438 "/>
</g>
<mask id="mask3">
  <g filter="url(#alpha)">
<rect x="0" y="0" width="25" height="25" style="fill:rgb(0%,0%,0%);fill-opacity:0.509804;stroke:none;"/>
  </g>
</mask>
<clipPath id="clip4">
  <rect x="0" y="0" width="25" height="25"/>
</clipPath>
<g id="surface14" clip-path="url(#clip4)">
<path style=" stroke:none;fill-rule:evenodd;fill:#00A962;fill-opacity:1;" d="M 23.625 5.023438 C 23.722656 5.152344 23.773438 5.304688 23.773438 5.476562 C 23.683594 5.34375 23.632812 5.191406 23.625 5.023438 Z M 23.625 5.023438 "/>
</g>
<mask id="mask4">
  <g filter="url(#alpha)">
<rect x="0" y="0" width="25" height="25" style="fill:rgb(0%,0%,0%);fill-opacity:0.137255;stroke:none;"/>
  </g>
</mask>
<clipPath id="clip5">
  <rect x="0" y="0" width="25" height="25"/>
</clipPath>
<g id="surface17" clip-path="url(#clip5)">
<path style=" stroke:none;fill-rule:evenodd;fill:rgb(58.431373%,58.431373%,58.431373%);fill-opacity:1;" d="M 23.773438 5.523438 C 23.832031 5.765625 23.839844 6.015625 23.800781 6.273438 C 23.773438 6.441406 23.714844 6.59375 23.625 6.726562 C 23.75 6.335938 23.800781 5.9375 23.773438 5.523438 Z M 23.773438 5.523438 "/>
</g>
<mask id="mask5">
  <g filter="url(#alpha)">
<rect x="0" y="0" width="25" height="25" style="fill:rgb(0%,0%,0%);fill-opacity:0.878431;stroke:none;"/>
  </g>
</mask>
<clipPath id="clip6">
  <rect x="0" y="0" width="25" height="25"/>
</clipPath>
<g id="surface20" clip-path="url(#clip6)">
<path style=" stroke:none;fill-rule:evenodd;fill:rgb(38.431373%,38.431373%,38.431373%);fill-opacity:1;" d="M 23.574219 6.875 C 23.464844 7.105469 23.3125 7.304688 23.125 7.476562 C 23.132812 7.410156 23.117188 7.351562 23.074219 7.300781 C 23.277344 7.222656 23.394531 7.082031 23.425781 6.875 C 23.476562 6.875 23.523438 6.875 23.574219 6.875 Z M 23.574219 6.875 "/>
</g>
<mask id="mask6">
  <g filter="url(#alpha)">
<rect x="0" y="0" width="25" height="25" style="fill:rgb(0%,0%,0%);fill-opacity:0.94902;stroke:none;"/>
  </g>
</mask>
<clipPath id="clip7">
  <rect x="0" y="0" width="25" height="25"/>
</clipPath>
<g id="surface23" clip-path="url(#clip7)">
<path style=" stroke:none;fill-rule:evenodd;fill:rgb(40%,40%,40%);fill-opacity:1;" d="M 22.625 7.976562 C 22.558594 8.074219 22.476562 8.160156 22.375 8.226562 C 22.378906 8.175781 22.363281 8.132812 22.324219 8.101562 C 22.371094 8.074219 22.421875 8.066406 22.476562 8.074219 C 22.449219 7.867188 22.496094 7.835938 22.625 7.976562 Z M 22.625 7.976562 "/>
</g>
<mask id="mask7">
  <g filter="url(#alpha)">
<rect x="0" y="0" width="25" height="25" style="fill:rgb(0%,0%,0%);fill-opacity:0.737255;stroke:none;"/>
  </g>
</mask>
<clipPath id="clip8">
  <rect x="0" y="0" width="25" height="25"/>
</clipPath>
<g id="surface26" clip-path="url(#clip8)">
<path style=" stroke:none;fill-rule:evenodd;fill:rgb(34.901961%,34.901961%,34.901961%);fill-opacity:1;" d="M 16.773438 7.726562 C 16.703125 7.953125 16.550781 8.105469 16.324219 8.175781 C 16.457031 8.007812 16.609375 7.859375 16.773438 7.726562 Z M 16.773438 7.726562 "/>
</g>
<mask id="mask8">
  <g filter="url(#alpha)">
<rect x="0" y="0" width="25" height="25" style="fill:rgb(0%,0%,0%);fill-opacity:0.945098;stroke:none;"/>
  </g>
</mask>
<clipPath id="clip9">
  <rect x="0" y="0" width="25" height="25"/>
</clipPath>
<g id="surface29" clip-path="url(#clip9)">
<path style=" stroke:none;fill-rule:evenodd;fill:rgb(32.54902%,32.54902%,32.54902%);fill-opacity:1;" d="M 22.324219 8.273438 C 22.125 8.476562 21.925781 8.675781 21.726562 8.875 C 21.699219 8.710938 21.765625 8.601562 21.925781 8.550781 C 21.910156 8.535156 21.890625 8.515625 21.875 8.5 C 21.929688 8.441406 21.996094 8.414062 22.074219 8.425781 C 22.074219 8.359375 22.074219 8.292969 22.074219 8.226562 C 22.160156 8.230469 22.246094 8.25 22.324219 8.273438 Z M 22.324219 8.273438 "/>
</g>
<mask id="mask9">
  <g filter="url(#alpha)">
<rect x="0" y="0" width="25" height="25" style="fill:rgb(0%,0%,0%);fill-opacity:0.870588;stroke:none;"/>
  </g>
</mask>
<clipPath id="clip10">
  <rect x="0" y="0" width="25" height="25"/>
</clipPath>
<g id="surface32" clip-path="url(#clip10)">
<path style=" stroke:none;fill-rule:evenodd;fill:rgb(36.078431%,36.078431%,36.078431%);fill-opacity:1;" d="M 21.726562 8.875 C 21.542969 9.089844 21.339844 9.292969 21.125 9.476562 C 21.125 9.390625 21.125 9.308594 21.125 9.226562 C 21.183594 9.234375 21.234375 9.21875 21.273438 9.175781 C 21.359375 8.972656 21.507812 8.875 21.726562 8.875 Z M 21.726562 8.875 "/>
</g>
<mask id="mask10">
  <g filter="url(#alpha)">
<rect x="0" y="0" width="25" height="25" style="fill:rgb(0%,0%,0%);fill-opacity:0.611765;stroke:none;"/>
  </g>
</mask>
<clipPath id="clip11">
  <rect x="0" y="0" width="25" height="25"/>
</clipPath>
<g id="surface35" clip-path="url(#clip11)">
<path style=" stroke:none;fill-rule:evenodd;fill:rgb(37.647059%,37.647059%,37.647059%);fill-opacity:1;" d="M 15.273438 9.226562 C 15.191406 9.410156 15.058594 9.542969 14.875 9.625 C 14.992188 9.476562 15.125 9.339844 15.273438 9.226562 Z M 15.273438 9.226562 "/>
</g>
<mask id="mask11">
  <g filter="url(#alpha)">
<rect x="0" y="0" width="25" height="25" style="fill:rgb(0%,0%,0%);fill-opacity:0.905882;stroke:none;"/>
  </g>
</mask>
<clipPath id="clip12">
  <rect x="0" y="0" width="25" height="25"/>
</clipPath>
<g id="surface38" clip-path="url(#clip12)">
<path style=" stroke:none;fill-rule:evenodd;fill:rgb(35.294118%,35.294118%,35.294118%);fill-opacity:1;" d="M 21.125 9.476562 C 21.058594 9.574219 20.976562 9.660156 20.875 9.726562 C 20.878906 9.675781 20.863281 9.632812 20.824219 9.601562 C 20.898438 9.464844 21 9.421875 21.125 9.476562 Z M 21.125 9.476562 "/>
</g>
<mask id="mask12">
  <g filter="url(#alpha)">
<rect x="0" y="0" width="25" height="25" style="fill:rgb(0%,0%,0%);fill-opacity:0.913725;stroke:none;"/>
  </g>
</mask>
<clipPath id="clip13">
  <rect x="0" y="0" width="25" height="25"/>
</clipPath>
<g id="surface41" clip-path="url(#clip13)">
<path style=" stroke:none;fill-rule:evenodd;fill:rgb(36.862745%,36.862745%,36.862745%);fill-opacity:1;" d="M 19.523438 11.074219 C 19.457031 11.175781 19.375 11.257812 19.273438 11.324219 C 19.199219 11.179688 19.25 11.113281 19.425781 11.125 C 19.417969 10.953125 19.453125 10.9375 19.523438 11.074219 Z M 19.523438 11.074219 "/>
</g>
<mask id="mask13">
  <g filter="url(#alpha)">
<rect x="0" y="0" width="25" height="25" style="fill:rgb(0%,0%,0%);fill-opacity:0.756863;stroke:none;"/>
  </g>
</mask>
<clipPath id="clip14">
  <rect x="0" y="0" width="25" height="25"/>
</clipPath>
<g id="surface44" clip-path="url(#clip14)">
<path style=" stroke:none;fill-rule:evenodd;fill:rgb(47.843137%,47.843137%,47.843137%);fill-opacity:1;" d="M 3.625 11.726562 C 3.625 11.742188 3.625 11.757812 3.625 11.773438 C 3.339844 11.773438 3.058594 11.773438 2.773438 11.773438 C 3.046875 11.667969 3.332031 11.652344 3.625 11.726562 Z M 3.625 11.726562 "/>
</g>
<mask id="mask14">
  <g filter="url(#alpha)">
<rect x="0" y="0" width="25" height="25" style="fill:rgb(0%,0%,0%);fill-opacity:0.309804;stroke:none;"/>
  </g>
</mask>
<clipPath id="clip15">
  <rect x="0" y="0" width="25" height="25"/>
</clipPath>
<g id="surface47" clip-path="url(#clip15)">
<path style=" stroke:none;fill-rule:evenodd;fill:rgb(60.392157%,60.392157%,60.392157%);fill-opacity:1;" d="M 3.625 11.773438 C 3.625 11.757812 3.625 11.742188 3.625 11.726562 C 3.757812 11.71875 3.875 11.753906 3.976562 11.824219 C 3.855469 11.816406 3.742188 11.800781 3.625 11.773438 Z M 3.625 11.773438 "/>
</g>
<mask id="mask15">
  <g filter="url(#alpha)">
<rect x="0" y="0" width="25" height="25" style="fill:rgb(0%,0%,0%);fill-opacity:0.866667;stroke:none;"/>
  </g>
</mask>
<clipPath id="clip16">
  <rect x="0" y="0" width="25" height="25"/>
</clipPath>
<g id="surface50" clip-path="url(#clip16)">
<path style=" stroke:none;fill-rule:evenodd;fill:rgb(41.960784%,41.960784%,41.960784%);fill-opacity:1;" d="M 18.726562 11.875 C 18.675781 11.957031 18.609375 12.023438 18.523438 12.074219 C 18.523438 12.007812 18.523438 11.941406 18.523438 11.875 C 18.589844 11.875 18.660156 11.875 18.726562 11.875 Z M 18.726562 11.875 "/>
</g>
<mask id="mask16">
  <g filter="url(#alpha)">
<rect x="0" y="0" width="25" height="25" style="fill:rgb(0%,0%,0%);fill-opacity:0.611765;stroke:none;"/>
  </g>
</mask>
<clipPath id="clip17">
  <rect x="0" y="0" width="25" height="25"/>
</clipPath>
<g id="surface53" clip-path="url(#clip17)">
<path style=" stroke:none;fill-rule:evenodd;fill:rgb(54.509804%,54.509804%,54.509804%);fill-opacity:1;" d="M 4.273438 11.925781 C 4.335938 11.945312 4.386719 11.980469 4.425781 12.023438 C 4.339844 12.035156 4.292969 12.003906 4.273438 11.925781 Z M 4.273438 11.925781 "/>
</g>
<mask id="mask17">
  <g filter="url(#alpha)">
<rect x="0" y="0" width="25" height="25" style="fill:rgb(0%,0%,0%);fill-opacity:0.952941;stroke:none;"/>
  </g>
</mask>
<clipPath id="clip18">
  <rect x="0" y="0" width="25" height="25"/>
</clipPath>
<g id="surface56" clip-path="url(#clip18)">
<path style=" stroke:none;fill-rule:evenodd;fill:rgb(34.901961%,34.901961%,34.901961%);fill-opacity:1;" d="M 2.574219 11.824219 C 2.410156 11.953125 2.269531 12.070312 2.148438 12.175781 C 2.117188 12.136719 2.074219 12.121094 2.023438 12.125 C 2.183594 11.984375 2.367188 11.882812 2.574219 11.824219 Z M 2.574219 11.824219 "/>
</g>
<mask id="mask18">
  <g filter="url(#alpha)">
<rect x="0" y="0" width="25" height="25" style="fill:rgb(0%,0%,0%);fill-opacity:0.933333;stroke:none;"/>
  </g>
</mask>
<clipPath id="clip19">
  <rect x="0" y="0" width="25" height="25"/>
</clipPath>
<g id="surface59" clip-path="url(#clip19)">
<path style=" stroke:none;fill-rule:evenodd;fill:rgb(35.686275%,35.686275%,35.686275%);fill-opacity:1;" d="M 4.425781 12.023438 C 4.589844 12.109375 4.726562 12.226562 4.824219 12.375 C 4.746094 12.363281 4.671875 12.363281 4.601562 12.375 C 4.589844 12.226562 4.53125 12.109375 4.425781 12.023438 Z M 4.425781 12.023438 "/>
</g>
<mask id="mask19">
  <g filter="url(#alpha)">
<rect x="0" y="0" width="25" height="25" style="fill:rgb(0%,0%,0%);fill-opacity:0.564706;stroke:none;"/>
  </g>
</mask>
<clipPath id="clip20">
  <rect x="0" y="0" width="25" height="25"/>
</clipPath>
<g id="surface62" clip-path="url(#clip20)">
<path style=" stroke:none;fill-rule:evenodd;fill:rgb(47.058824%,47.058824%,47.058824%);fill-opacity:1;" d="M 1.976562 12.175781 C 1.921875 12.28125 1.835938 12.347656 1.726562 12.375 C 1.777344 12.269531 1.863281 12.203125 1.976562 12.175781 Z M 1.976562 12.175781 "/>
</g>
<mask id="mask20">
  <g filter="url(#alpha)">
<rect x="0" y="0" width="25" height="25" style="fill:rgb(0%,0%,0%);fill-opacity:0.337255;stroke:none;"/>
  </g>
</mask>
<clipPath id="clip21">
  <rect x="0" y="0" width="25" height="25"/>
</clipPath>
<g id="surface65" clip-path="url(#clip21)">
<path style=" stroke:none;fill-rule:evenodd;fill:rgb(70.980392%,70.980392%,70.980392%);fill-opacity:1;" d="M 4.875 12.375 C 5.375 12.839844 5.859375 13.324219 6.324219 13.824219 C 6.289062 13.832031 6.253906 13.824219 6.226562 13.800781 C 5.746094 13.34375 5.296875 12.871094 4.875 12.375 Z M 4.875 12.375 "/>
</g>
<mask id="mask21">
  <g filter="url(#alpha)">
<rect x="0" y="0" width="25" height="25" style="fill:rgb(0%,0%,0%);fill-opacity:0.862745;stroke:none;"/>
  </g>
</mask>
<clipPath id="clip22">
  <rect x="0" y="0" width="25" height="25"/>
</clipPath>
<g id="surface68" clip-path="url(#clip22)">
<path style=" stroke:none;fill-rule:evenodd;fill:rgb(36.470588%,36.470588%,36.470588%);fill-opacity:1;" d="M 17.574219 13.023438 C 17.507812 13.125 17.425781 13.207031 17.324219 13.273438 C 17.324219 13.191406 17.324219 13.109375 17.324219 13.023438 C 17.410156 13.023438 17.492188 13.023438 17.574219 13.023438 Z M 17.574219 13.023438 "/>
</g>
<mask id="mask22">
  <g filter="url(#alpha)">
<rect x="0" y="0" width="25" height="25" style="fill:rgb(0%,0%,0%);fill-opacity:0.741176;stroke:none;"/>
  </g>
</mask>
<clipPath id="clip23">
  <rect x="0" y="0" width="25" height="25"/>
</clipPath>
<g id="surface71" clip-path="url(#clip23)">
<path style=" stroke:none;fill-rule:evenodd;fill:rgb(48.627451%,48.627451%,48.627451%);fill-opacity:1;" d="M 1.324219 12.976562 C 1.324219 13.144531 1.273438 13.296875 1.175781 13.425781 C 1.183594 13.257812 1.234375 13.105469 1.324219 12.976562 Z M 1.324219 12.976562 "/>
</g>
<mask id="mask23">
  <g filter="url(#alpha)">
<rect x="0" y="0" width="25" height="25" style="fill:rgb(0%,0%,0%);fill-opacity:0.87451;stroke:none;"/>
  </g>
</mask>
<clipPath id="clip24">
  <rect x="0" y="0" width="25" height="25"/>
</clipPath>
<g id="surface74" clip-path="url(#clip24)">
<path style=" stroke:none;fill-rule:evenodd;fill:rgb(38.431373%,38.431373%,38.431373%);fill-opacity:1;" d="M 17.226562 13.375 C 17.140625 13.492188 17.042969 13.589844 16.925781 13.675781 C 16.921875 13.621094 16.90625 13.570312 16.875 13.523438 C 16.898438 13.476562 16.929688 13.476562 16.976562 13.523438 C 17.019531 13.484375 17.035156 13.433594 17.023438 13.375 C 17.089844 13.375 17.160156 13.375 17.226562 13.375 Z M 17.226562 13.375 "/>
</g>
<mask id="mask24">
  <g filter="url(#alpha)">
<rect x="0" y="0" width="25" height="25" style="fill:rgb(0%,0%,0%);fill-opacity:0.34902;stroke:none;"/>
  </g>
</mask>
<clipPath id="clip25">
  <rect x="0" y="0" width="25" height="25"/>
</clipPath>
<g id="surface77" clip-path="url(#clip25)">
<path style=" stroke:none;fill-rule:evenodd;fill:rgb(68.235294%,68.235294%,68.235294%);fill-opacity:1;" d="M 6.324219 13.824219 C 6.496094 13.945312 6.628906 14.09375 6.726562 14.273438 C 6.554688 14.15625 6.421875 14.003906 6.324219 13.824219 Z M 6.324219 13.824219 "/>
</g>
<mask id="mask25">
  <g filter="url(#alpha)">
<rect x="0" y="0" width="25" height="25" style="fill:rgb(0%,0%,0%);fill-opacity:0.133333;stroke:none;"/>
  </g>
</mask>
<clipPath id="clip26">
  <rect x="0" y="0" width="25" height="25"/>
</clipPath>
<g id="surface80" clip-path="url(#clip26)">
<path style=" stroke:none;fill-rule:evenodd;fill:rgb(60%,60%,60%);fill-opacity:1;" d="M 1.175781 14.273438 C 1.246094 14.375 1.28125 14.492188 1.273438 14.625 C 1.203125 14.523438 1.171875 14.40625 1.175781 14.273438 Z M 1.175781 14.273438 "/>
</g>
<mask id="mask26">
  <g filter="url(#alpha)">
<rect x="0" y="0" width="25" height="25" style="fill:rgb(0%,0%,0%);fill-opacity:0.788235;stroke:none;"/>
  </g>
</mask>
<clipPath id="clip27">
  <rect x="0" y="0" width="25" height="25"/>
</clipPath>
<g id="surface83" clip-path="url(#clip27)">
<path style=" stroke:none;fill-rule:evenodd;fill:rgb(34.901961%,34.901961%,34.901961%);fill-opacity:1;" d="M 10.523438 13.976562 C 10.453125 14.203125 10.300781 14.355469 10.074219 14.425781 C 10.207031 14.257812 10.359375 14.109375 10.523438 13.976562 Z M 10.523438 13.976562 "/>
</g>
<mask id="mask27">
  <g filter="url(#alpha)">
<rect x="0" y="0" width="25" height="25" style="fill:rgb(0%,0%,0%);fill-opacity:0.290196;stroke:none;"/>
  </g>
</mask>
<clipPath id="clip28">
  <rect x="0" y="0" width="25" height="25"/>
</clipPath>
<g id="surface86" clip-path="url(#clip28)">
<path style=" stroke:none;fill-rule:evenodd;fill:rgb(68.627451%,68.627451%,68.627451%);fill-opacity:1;" d="M 6.824219 14.324219 C 6.980469 14.429688 7.09375 14.5625 7.175781 14.726562 C 7.019531 14.621094 6.90625 14.488281 6.824219 14.324219 Z M 6.824219 14.324219 "/>
</g>
<mask id="mask28">
  <g filter="url(#alpha)">
<rect x="0" y="0" width="25" height="25" style="fill:rgb(0%,0%,0%);fill-opacity:0.235294;stroke:none;"/>
  </g>
</mask>
<clipPath id="clip29">
  <rect x="0" y="0" width="25" height="25"/>
</clipPath>
<g id="surface89" clip-path="url(#clip29)">
<path style=" stroke:none;fill-rule:evenodd;fill:rgb(70.980392%,70.980392%,70.980392%);fill-opacity:1;" d="M 7.226562 14.726562 C 7.628906 15.078125 7.996094 15.460938 8.324219 15.875 C 7.921875 15.523438 7.554688 15.140625 7.226562 14.726562 Z M 7.226562 14.726562 "/>
</g>
<mask id="mask29">
  <g filter="url(#alpha)">
<rect x="0" y="0" width="25" height="25" style="fill:rgb(0%,0%,0%);fill-opacity:0.992157;stroke:none;"/>
  </g>
</mask>
<clipPath id="clip30">
  <rect x="0" y="0" width="25" height="25"/>
</clipPath>
<g id="surface92" clip-path="url(#clip30)">
<path style=" stroke:none;fill-rule:evenodd;fill:rgb(32.156863%,32.156863%,32.156863%);fill-opacity:1;" d="M 15.324219 15.273438 C 15.089844 15.542969 14.839844 15.792969 14.574219 16.023438 C 14.554688 15.835938 14.636719 15.730469 14.824219 15.699219 C 14.800781 15.679688 14.785156 15.65625 14.773438 15.625 C 14.835938 15.578125 14.902344 15.5625 14.976562 15.574219 C 14.964844 15.476562 14.980469 15.386719 15.023438 15.300781 C 15.074219 15.269531 15.113281 15.277344 15.148438 15.324219 C 15.167969 15.292969 15.183594 15.257812 15.199219 15.226562 C 15.234375 15.261719 15.273438 15.28125 15.324219 15.273438 Z M 15.324219 15.273438 "/>
</g>
<mask id="mask30">
  <g filter="url(#alpha)">
<rect x="0" y="0" width="25" height="25" style="fill:rgb(0%,0%,0%);fill-opacity:0.694118;stroke:none;"/>
  </g>
</mask>
<clipPath id="clip31">
  <rect x="0" y="0" width="25" height="25"/>
</clipPath>
<g id="surface95" clip-path="url(#clip31)">
<path style=" stroke:none;fill-rule:evenodd;fill:rgb(37.647059%,37.647059%,37.647059%);fill-opacity:1;" d="M 9.023438 15.476562 C 8.941406 15.660156 8.808594 15.792969 8.625 15.875 C 8.742188 15.726562 8.875 15.589844 9.023438 15.476562 Z M 9.023438 15.476562 "/>
</g>
<mask id="mask31">
  <g filter="url(#alpha)">
<rect x="0" y="0" width="25" height="25" style="fill:rgb(0%,0%,0%);fill-opacity:0.435294;stroke:none;"/>
  </g>
</mask>
<clipPath id="clip32">
  <rect x="0" y="0" width="25" height="25"/>
</clipPath>
<g id="surface98" clip-path="url(#clip32)">
<path style=" stroke:none;fill-rule:evenodd;fill:rgb(36.470588%,36.470588%,36.470588%);fill-opacity:1;" d="M 14.023438 16.574219 C 13.941406 16.691406 13.839844 16.792969 13.726562 16.875 C 13.730469 16.824219 13.710938 16.785156 13.675781 16.75 C 13.777344 16.65625 13.894531 16.597656 14.023438 16.574219 Z M 14.023438 16.574219 "/>
</g>
<mask id="mask32">
  <g filter="url(#alpha)">
<rect x="0" y="0" width="25" height="25" style="fill:rgb(0%,0%,0%);fill-opacity:0.619608;stroke:none;"/>
  </g>
</mask>
<clipPath id="clip33">
  <rect x="0" y="0" width="25" height="25"/>
</clipPath>
<g id="surface101" clip-path="url(#clip33)">
<path style=" stroke:none;fill-rule:evenodd;fill:rgb(35.686275%,35.686275%,35.686275%);fill-opacity:1;" d="M 12.523438 18.074219 C 12.441406 18.191406 12.339844 18.292969 12.226562 18.375 C 12.242188 18.191406 12.339844 18.089844 12.523438 18.074219 Z M 12.523438 18.074219 "/>
</g>
<mask id="mask33">
  <g filter="url(#alpha)">
<rect x="0" y="0" width="25" height="25" style="fill:rgb(0%,0%,0%);fill-opacity:0.756863;stroke:none;"/>
  </g>
</mask>
<clipPath id="clip34">
  <rect x="0" y="0" width="25" height="25"/>
</clipPath>
<g id="surface104" clip-path="url(#clip34)">
<path style=" stroke:none;fill-rule:evenodd;fill:rgb(41.568627%,41.568627%,41.568627%);fill-opacity:1;" d="M 7.726562 21.074219 C 7.828125 21.066406 7.925781 21.074219 8.023438 21.101562 C 8.054688 21.121094 8.070312 21.144531 8.074219 21.175781 C 7.941406 21.179688 7.824219 21.144531 7.726562 21.074219 Z M 7.726562 21.074219 "/>
</g>
</defs>
<g id="surface1">
<use xlink:href="#surface5" mask="url(#mask0)"/>
<path style=" stroke:none;fill-rule:evenodd;fill:rgb(20%,20%,20%);fill-opacity:1;" d="M 21.226562 3.773438 C 21.574219 3.773438 21.925781 3.792969 22.273438 3.824219 C 22.707031 3.9375 23.054688 4.171875 23.324219 4.523438 C 23.320312 4.601562 23.355469 4.652344 23.425781 4.675781 C 23.53125 4.765625 23.597656 4.882812 23.625 5.023438 C 23.632812 5.191406 23.683594 5.34375 23.773438 5.476562 C 23.773438 5.492188 23.773438 5.507812 23.773438 5.523438 C 23.800781 5.9375 23.75 6.335938 23.625 6.726562 C 23.636719 6.789062 23.621094 6.839844 23.574219 6.875 C 23.523438 6.875 23.476562 6.875 23.425781 6.875 C 23.394531 7.082031 23.277344 7.222656 23.074219 7.300781 C 23.117188 7.351562 23.132812 7.410156 23.125 7.476562 C 23.109375 7.523438 23.074219 7.558594 23.023438 7.574219 C 22.898438 7.554688 22.773438 7.535156 22.648438 7.523438 C 22.65625 7.640625 22.683594 7.757812 22.726562 7.875 C 22.707031 7.925781 22.675781 7.957031 22.625 7.976562 C 22.496094 7.835938 22.449219 7.867188 22.476562 8.074219 C 22.421875 8.066406 22.371094 8.074219 22.324219 8.101562 C 22.363281 8.132812 22.378906 8.175781 22.375 8.226562 C 22.375 8.257812 22.359375 8.273438 22.324219 8.273438 C 22.246094 8.25 22.160156 8.230469 22.074219 8.226562 C 22.074219 8.292969 22.074219 8.359375 22.074219 8.425781 C 21.996094 8.414062 21.929688 8.441406 21.875 8.5 C 21.890625 8.515625 21.910156 8.535156 21.925781 8.550781 C 21.765625 8.601562 21.699219 8.710938 21.726562 8.875 C 21.507812 8.875 21.359375 8.972656 21.273438 9.175781 C 21.234375 9.21875 21.183594 9.234375 21.125 9.226562 C 21.125 9.308594 21.125 9.390625 21.125 9.476562 C 21 9.421875 20.898438 9.464844 20.824219 9.601562 C 20.863281 9.632812 20.878906 9.675781 20.875 9.726562 C 20.410156 10.160156 19.957031 10.609375 19.523438 11.074219 C 19.453125 10.9375 19.417969 10.953125 19.425781 11.125 C 19.25 11.113281 19.199219 11.179688 19.273438 11.324219 C 19.109375 11.523438 18.925781 11.707031 18.726562 11.875 C 18.660156 11.875 18.589844 11.875 18.523438 11.875 C 18.523438 11.941406 18.523438 12.007812 18.523438 12.074219 C 18.191406 12.375 17.875 12.691406 17.574219 13.023438 C 17.492188 13.023438 17.410156 13.023438 17.324219 13.023438 C 17.324219 13.109375 17.324219 13.191406 17.324219 13.273438 C 17.308594 13.324219 17.273438 13.359375 17.226562 13.375 C 17.160156 13.375 17.089844 13.375 17.023438 13.375 C 17.035156 13.433594 17.019531 13.484375 16.976562 13.523438 C 16.929688 13.476562 16.898438 13.476562 16.875 13.523438 C 16.90625 13.570312 16.921875 13.621094 16.925781 13.675781 C 16.40625 14.226562 15.871094 14.761719 15.324219 15.273438 C 15.273438 15.28125 15.234375 15.261719 15.199219 15.226562 C 15.183594 15.257812 15.167969 15.292969 15.148438 15.324219 C 15.113281 15.277344 15.074219 15.269531 15.023438 15.300781 C 14.980469 15.386719 14.964844 15.476562 14.976562 15.574219 C 14.902344 15.5625 14.835938 15.578125 14.773438 15.625 C 14.785156 15.65625 14.800781 15.679688 14.824219 15.699219 C 14.636719 15.730469 14.554688 15.835938 14.574219 16.023438 C 14.410156 16.226562 14.226562 16.410156 14.023438 16.574219 C 13.894531 16.597656 13.777344 16.65625 13.675781 16.75 C 13.710938 16.785156 13.730469 16.824219 13.726562 16.875 C 13.339844 17.292969 12.941406 17.691406 12.523438 18.074219 C 12.339844 18.089844 12.242188 18.191406 12.226562 18.375 C 11.398438 19.242188 10.550781 20.082031 9.675781 20.898438 C 9.171875 21.210938 8.636719 21.300781 8.074219 21.175781 C 8.070312 21.144531 8.054688 21.121094 8.023438 21.101562 C 7.925781 21.074219 7.828125 21.066406 7.726562 21.074219 C 7.527344 21.011719 7.34375 20.917969 7.175781 20.800781 C 5.300781 18.925781 3.425781 17.050781 1.550781 15.175781 C 1.429688 15.003906 1.339844 14.820312 1.273438 14.625 C 1.28125 14.492188 1.246094 14.375 1.175781 14.273438 C 1.109375 13.992188 1.109375 13.707031 1.175781 13.425781 C 1.273438 13.296875 1.324219 13.144531 1.324219 12.976562 C 1.410156 12.738281 1.542969 12.539062 1.726562 12.375 C 1.835938 12.347656 1.921875 12.28125 1.976562 12.175781 C 1.976562 12.140625 1.992188 12.125 2.023438 12.125 C 2.074219 12.121094 2.117188 12.136719 2.148438 12.175781 C 2.269531 12.070312 2.410156 11.953125 2.574219 11.824219 C 2.628906 11.777344 2.695312 11.761719 2.773438 11.773438 C 3.058594 11.773438 3.339844 11.773438 3.625 11.773438 C 3.742188 11.800781 3.855469 11.816406 3.976562 11.824219 C 4.085938 11.832031 4.183594 11.863281 4.273438 11.925781 C 4.292969 12.003906 4.339844 12.035156 4.425781 12.023438 C 4.53125 12.109375 4.589844 12.226562 4.601562 12.375 C 4.671875 12.363281 4.746094 12.363281 4.824219 12.375 C 4.839844 12.375 4.859375 12.375 4.875 12.375 C 5.296875 12.871094 5.746094 13.34375 6.226562 13.800781 C 6.253906 13.824219 6.289062 13.832031 6.324219 13.824219 C 6.421875 14.003906 6.554688 14.15625 6.726562 14.273438 C 6.757812 14.292969 6.792969 14.308594 6.824219 14.324219 C 6.90625 14.488281 7.019531 14.621094 7.175781 14.726562 C 7.191406 14.726562 7.207031 14.726562 7.226562 14.726562 C 7.554688 15.140625 7.921875 15.523438 8.324219 15.875 C 8.402344 15.875 8.460938 15.910156 8.5 15.976562 C 8.535156 15.929688 8.578125 15.898438 8.625 15.875 C 8.808594 15.792969 8.941406 15.660156 9.023438 15.476562 C 9.359375 15.109375 9.707031 14.757812 10.074219 14.425781 C 10.300781 14.355469 10.453125 14.203125 10.523438 13.976562 C 11.957031 12.507812 13.410156 11.058594 14.875 9.625 C 15.058594 9.542969 15.191406 9.410156 15.273438 9.226562 C 15.609375 8.859375 15.957031 8.507812 16.324219 8.175781 C 16.550781 8.105469 16.703125 7.953125 16.773438 7.726562 C 17.890625 6.574219 19.023438 5.441406 20.175781 4.324219 C 20.289062 4.296875 20.371094 4.230469 20.425781 4.125 C 20.652344 3.929688 20.917969 3.8125 21.226562 3.773438 Z M 21.226562 3.773438 "/>
<use xlink:href="#surface8" mask="url(#mask1)"/>
<use xlink:href="#surface11" mask="url(#mask2)"/>
<use xlink:href="#surface14" mask="url(#mask3)"/>
<use xlink:href="#surface17" mask="url(#mask4)"/>
<use xlink:href="#surface20" mask="url(#mask5)"/>
<path style=" stroke:none;fill-rule:evenodd;fill:rgb(31.372549%,31.372549%,31.372549%);fill-opacity:1;" d="M 23.023438 7.574219 C 22.941406 7.691406 22.839844 7.792969 22.726562 7.875 C 22.683594 7.757812 22.65625 7.640625 22.648438 7.523438 C 22.773438 7.535156 22.898438 7.554688 23.023438 7.574219 Z M 23.023438 7.574219 "/>
<use xlink:href="#surface23" mask="url(#mask6)"/>
<use xlink:href="#surface26" mask="url(#mask7)"/>
<use xlink:href="#surface29" mask="url(#mask8)"/>
<use xlink:href="#surface32" mask="url(#mask9)"/>
<use xlink:href="#surface35" mask="url(#mask10)"/>
<use xlink:href="#surface38" mask="url(#mask11)"/>
<use xlink:href="#surface41" mask="url(#mask12)"/>
<use xlink:href="#surface44" mask="url(#mask13)"/>
<use xlink:href="#surface47" mask="url(#mask14)"/>
<use xlink:href="#surface50" mask="url(#mask15)"/>
<use xlink:href="#surface53" mask="url(#mask16)"/>
<use xlink:href="#surface56" mask="url(#mask17)"/>
<use xlink:href="#surface59" mask="url(#mask18)"/>
<use xlink:href="#surface62" mask="url(#mask19)"/>
<use xlink:href="#surface65" mask="url(#mask20)"/>
<use xlink:href="#surface68" mask="url(#mask21)"/>
<use xlink:href="#surface71" mask="url(#mask22)"/>
<use xlink:href="#surface74" mask="url(#mask23)"/>
<use xlink:href="#surface77" mask="url(#mask24)"/>
<use xlink:href="#surface80" mask="url(#mask25)"/>
<use xlink:href="#surface83" mask="url(#mask26)"/>
<use xlink:href="#surface86" mask="url(#mask27)"/>
<use xlink:href="#surface89" mask="url(#mask28)"/>
<use xlink:href="#surface92" mask="url(#mask29)"/>
<use xlink:href="#surface95" mask="url(#mask30)"/>
<use xlink:href="#surface98" mask="url(#mask31)"/>
<use xlink:href="#surface101" mask="url(#mask32)"/>
<use xlink:href="#surface104" mask="url(#mask33)"/>
</g>
</svg>
