<?xml version="1.0" standalone="yes"?>
<svg xmlns="http://www.w3.org/2000/svg" width="20" height="20">
<path style="fill:#ffffff; stroke:none;" d="M0 0L0 250L1 250C5.61589 240.286 13.9034 232.091 20.8696 224C36.3199 206.055 53.0189 189.148 71 173.729C98.4083 150.226 128.102 129.412 161 114.309C190.407 100.808 223.513 92.0787 256 92.0787C328.86 92.0787 396.932 133.032 449 180.914C469.991 200.218 498.553 223.805 511 250L512 250L512 0L0 0z"/>
<path style="fill:#010101; stroke:none;" d="M251 92.4244C229.795 95.2072 209.698 96.5865 189 103.025C135.701 119.606 87.0895 154.913 48 194C35.5178 206.481 23.7076 219.429 12.4136 233C7.64057 238.735 0.878776 245.19 0.104938 253C-0.980695 263.956 5.83255 271.092 12.4136 279C24.6204 293.667 37.4774 307.542 51 320.999C111.727 381.433 195.956 429.296 284 417.718C355.351 408.336 418.302 363.698 468 314C479.437 302.563 490.071 290.432 500.414 278C505.249 272.187 511.511 265.957 511.957 258C512.546 247.482 505.939 240.633 499.586 233C488.292 219.429 476.482 206.481 464 194C421.444 151.446 368.035 113.954 309 99.1266C291.169 94.6483 269.388 90.0112 251 92.4244z"/>
<path style="fill:#ffffff; stroke:none;" d="M245 127.424C181.053 135.825 126.395 167.676 80 212.039C69.6108 221.974 59.8051 232.43 50.0856 243C47.2 246.138 40.8673 251.397 40.8673 256C40.8673 261.22 48.6853 267.469 51.9753 271C62.9691 282.799 74.0003 294.369 86 305.169C137.418 351.446 203.983 392.443 276 383.715C335.854 376.46 391.94 339.556 434 297.996C443.567 288.543 452.816 278.894 461.914 269C464.8 265.862 471.133 260.603 471.133 256C471.133 250.799 463.313 244.484 460 241C448.886 229.313 438.006 217.637 426 206.831C379.41 164.9 311.62 118.673 245 127.424z"/>
<path style="fill:#010101; stroke:none;" d="M250 154.424C228.665 157.227 209.092 162.525 192 176.464C181.624 184.926 172.945 195.304 166.439 207C125.494 280.615 190.39 366.749 271 356.714C283.333 355.178 296.313 350.715 307 344.395C380.503 300.928 371.057 185.988 288 159.344C276.202 155.559 262.408 152.794 250 154.424z"/>
<path style="fill:#ffffff; stroke:none;" d="M248 189.428C237.281 190.964 227.023 194.682 218 200.749C161.795 238.541 196.26 332.276 264 322.572C274.719 321.036 284.977 317.318 294 311.251C350.205 273.459 315.74 179.724 248 189.428M0 262L0 512L512 512L512 262L511 262C506.384 271.714 498.097 279.909 491.13 288C474.785 306.985 456.995 324.544 438 340.87C413.236 362.153 386.183 380.171 357 394.753C338.056 404.219 317.763 411.222 297 415.4C205.962 433.716 119.073 385.228 55 323.961C34.7827 304.629 18.2588 282.921 0 262z"/>
</svg>
