<svg width="12" height="12" viewBox="0 0 12 12" fill="none" xmlns="http://www.w3.org/2000/svg">
<path d="M5.95298 11.1995C5.90195 11.1995 5.85019 11.1896 5.79917 11.1698C1.17051 9.36841 -0.405422 6.05487 0.0860329 3.57019C0.41367 1.89337 1.63388 0.809937 3.19443 0.809937C4.07383 0.809937 5.02768 1.16595 5.95298 1.83954C6.87778 1.17889 7.8248 0.829712 8.69077 0.829712C10.2403 0.829712 11.4605 1.90118 11.7994 3.55945C12.2904 6.0224 10.7208 9.33081 6.10703 11.1698C6.05576 11.1896 6.004 11.1995 5.95298 11.1995ZM3.19443 1.61993C2.05259 1.61993 1.15464 2.44409 0.906834 3.7196C0.488865 5.8371 1.88706 8.70844 5.95298 10.3499C8.87168 9.14642 11.5582 6.62952 10.9786 3.7196C10.7225 2.46216 9.82456 1.6496 8.69077 1.6496C7.92514 1.6496 7.06723 2.00256 6.20957 2.67023C6.13511 2.72809 6.04209 2.75995 5.94809 2.75995C5.85386 2.75995 5.76108 2.72809 5.68662 2.67023C4.82822 1.98315 3.9664 1.61993 3.19443 1.61993Z" fill="#AAB2B7"/>
</svg>
