<svg width="11" height="12" viewBox="0 0 11 12" fill="#ffffff" xmlns="http://www.w3.org/2000/svg">
<path d="M5.37427 11.9487C5.25659 11.9487 5.15796 11.9105 5.08081 11.8353C5.04199 11.7997 1.17236 8.21661 0.625977 5.81512C0.625977 5.79877 0.622803 5.78516 0.619873 5.77307C0.616943 5.76123 0.61499 5.7522 0.61499 5.74316C0.552246 5.43707 0.520508 5.11969 0.520508 4.79993C0.520508 2.17572 2.698 0.0407715 5.37427 0.0407715C6.6897 0.0407715 7.92139 0.550049 8.84253 1.47485C9.73462 2.37079 10.2231 3.55164 10.218 4.79993C10.218 5.1543 10.1829 5.49249 10.1138 5.80524C10.1138 5.81458 10.1113 5.82379 10.1089 5.83356C10.1055 5.84637 10.1028 5.85651 10.1028 5.86646C9.62573 7.91809 6.61328 10.9296 5.70142 11.8037L5.66846 11.8353C5.58374 11.9084 5.47925 11.9487 5.37427 11.9487ZM5.36426 0.87146C3.16187 0.87146 1.37012 2.62891 1.37012 4.78912C1.37012 5.04047 1.39746 5.30219 1.45386 5.58923C1.46387 5.60992 1.46387 5.61957 1.46387 5.64056C1.86719 7.40442 4.55884 10.1453 5.37427 10.9434C6.18506 10.1496 8.86694 7.42426 9.2749 5.68195V5.65137C9.33765 5.37134 9.36938 5.08136 9.36938 4.78912C9.36938 2.62891 7.57275 0.87146 5.36426 0.87146Z" fill="#F5F5F5"/>
<path d="M5.37427 5.89709C4.47852 5.89709 3.74976 5.18414 3.74976 4.30774C3.74976 3.43079 4.47852 2.71741 5.37427 2.71741C6.27051 2.71741 6.99976 3.43079 6.99976 4.30774C6.99976 5.18414 6.27051 5.89709 5.37427 5.89709ZM5.36987 3.53009C4.95093 3.53009 4.61011 3.88019 4.61011 4.31042C4.61011 4.74017 4.95093 5.08984 5.36987 5.08984C5.78931 5.08984 6.13037 4.74017 6.13037 4.31042C6.13037 3.88019 5.78931 3.53009 5.36987 3.53009Z" fill="#F5F5F5"/>
</svg>
