<svg width="52" height="54" viewBox="0 0 52 54" fill="none" xmlns="http://www.w3.org/2000/svg">
<g filter="url(#filter0_d_1_235)">
<path d="M3 20C3 9.50659 11.5066 1 22 1C32.4934 1 41 9.50659 41 20C41 30.4934 32.4934 39 22 39C11.5066 39 3 30.4934 3 20Z" stroke="url(#paint0_linear_1_235)" stroke-width="2" shape-rendering="crispEdges"/>
</g>
<path d="M19.7778 12H15.3333C14.5973 12.0008 14.0008 12.5973 14 13.3333V17.7778C14.0008 18.5138 14.5973 19.1103 15.3333 19.1111L19.7778 19.1111C20.5138 19.1103 21.1103 18.5138 21.1111 17.7778L21.1111 13.3333C21.1103 12.5973 20.5138 12.0008 19.7778 12ZM20.2222 17.7778C20.2219 18.0231 20.0231 18.2219 19.7778 18.2222H15.3333C15.088 18.2219 14.8892 18.0231 14.8889 17.7778V13.3333C14.8892 13.088 15.088 12.8892 15.3333 12.8889H19.7778C20.0231 12.8892 20.2219 13.088 20.2222 13.3333V17.7778ZM28.6667 12H24.2222C23.4862 12.0008 22.8897 12.5973 22.8889 13.3333V17.7778C22.8897 18.5138 23.4862 19.1103 24.2222 19.1111L28.6667 19.1111C29.4027 19.1103 29.9992 18.5138 30 17.7778V13.3333C29.9992 12.5973 29.4027 12.0008 28.6667 12ZM29.1111 17.7778C29.1108 18.0231 28.912 18.2219 28.6667 18.2222H24.2222C23.9769 18.2219 23.7781 18.0231 23.7778 17.7778V13.3333C23.7781 13.088 23.9769 12.8892 24.2222 12.8889H28.6667C28.912 12.8892 29.1108 13.088 29.1111 13.3333V17.7778ZM19.7778 20.8889H15.3333C14.5973 20.8897 14.0008 21.4862 14 22.2222V26.6667C14.0008 27.4027 14.5973 27.9992 15.3333 28H19.7778C20.5138 27.9992 21.1103 27.4027 21.1111 26.6667L21.1111 22.2222C21.1103 21.4862 20.5138 20.8897 19.7778 20.8889ZM20.2222 26.6667C20.2219 26.912 20.0231 27.1108 19.7778 27.1111H15.3333C15.088 27.1108 14.8892 26.912 14.8889 26.6667V22.2222C14.8892 21.9769 15.088 21.7781 15.3333 21.7778H19.7778C20.0231 21.7781 20.2219 21.9769 20.2222 22.2222V26.6667ZM28.6667 20.8889H24.2222C23.4862 20.8897 22.8897 21.4862 22.8889 22.2222V26.6667C22.8897 27.4027 23.4862 27.9992 24.2222 28H28.6667C29.4027 27.9992 29.9992 27.4027 30 26.6667V22.2222C29.9992 21.4862 29.4027 20.8897 28.6667 20.8889ZM29.1111 26.6667C29.1108 26.912 28.912 27.1108 28.6667 27.1111H24.2222C23.9769 27.1108 23.7781 26.912 23.7778 26.6667V22.2222C23.7781 21.9769 23.9769 21.7781 24.2222 21.7778H28.6667C28.912 21.7781 29.1108 21.9769 29.1111 22.2222V26.6667Z" fill="#778087"/>
<defs>
<filter id="filter0_d_1_235" x="0" y="0" width="52" height="54" filterUnits="userSpaceOnUse" color-interpolation-filters="sRGB">
<feFlood flood-opacity="0" result="BackgroundImageFix"/>
<feColorMatrix in="SourceAlpha" type="matrix" values="0 0 0 0 0 0 0 0 0 0 0 0 0 0 0 0 0 0 127 0" result="hardAlpha"/>
<feOffset dx="4" dy="8"/>
<feGaussianBlur stdDeviation="3"/>
<feComposite in2="hardAlpha" operator="out"/>
<feColorMatrix type="matrix" values="0 0 0 0 0.537255 0 0 0 0 0.478431 0 0 0 0 0.984314 0 0 0 0.34902 0"/>
<feBlend mode="normal" in2="BackgroundImageFix" result="effect1_dropShadow_1_235"/>
<feBlend mode="normal" in="SourceGraphic" in2="effect1_dropShadow_1_235" result="shape"/>
</filter>
<linearGradient id="paint0_linear_1_235" x1="22" y1="0" x2="22" y2="40" gradientUnits="userSpaceOnUse">
<stop stop-color="#00A962"/>
<stop offset="0.567708" stop-color="#0E5C57"/>
<stop offset="0.671875" stop-color="#114E55"/>
<stop offset="1" stop-color="#19214F"/>
</linearGradient>
</defs>
</svg>
