<svg width="72" height="72" viewBox="0 0 72 72" fill="none" xmlns="http://www.w3.org/2000/svg">
<g filter="url(#filter0_d_912_610)">
<path d="M36 0C52.5901 0 66 13.41 66 30C66 46.5901 52.5901 60 36 60C19.4102 60 6 46.5901 6 30C6 13.41 19.4102 0 36 0Z" fill="white"/>
<path d="M36 1C52.0378 1 65 13.9623 65 30C65 46.0378 52.0378 59 36 59C19.9624 59 7 46.0378 7 30C7 13.9623 19.9624 1 36 1Z" stroke="url(#paint0_linear_912_610)" stroke-width="2"/>
</g>
<mask id="path-3-inside-1_912_610" fill="white">
<path d="M35.6755 40.4435L35.6754 30.5608L25.7929 30.5609C25.4835 30.5608 25.2321 30.3094 25.2321 30.0001C25.2321 29.6905 25.4834 29.4392 25.793 29.4392H35.6754L35.6755 19.5568C35.6754 19.2471 35.9269 18.9957 36.2365 18.9958C36.5457 18.9958 36.7971 19.2472 36.7973 19.5566L36.7972 29.4391L46.6799 29.4392C46.9891 29.4392 47.2406 29.6907 47.2407 30C47.2407 30.1546 47.173 30.2998 47.0763 30.3965C46.97 30.5028 46.8345 30.5608 46.6797 30.5609H36.7971L36.7972 40.4434C36.7972 40.5981 36.7392 40.7336 36.633 40.8399C36.5264 40.9464 36.3911 41.0042 36.2363 41.0043C35.927 41.0043 35.6755 40.7529 35.6755 40.4435Z"/>
</mask>
<path d="M35.6755 40.4435L35.6754 30.5608L25.7929 30.5609C25.4835 30.5608 25.2321 30.3094 25.2321 30.0001C25.2321 29.6905 25.4834 29.4392 25.793 29.4392H35.6754L35.6755 19.5568C35.6754 19.2471 35.9269 18.9957 36.2365 18.9958C36.5457 18.9958 36.7971 19.2472 36.7973 19.5566L36.7972 29.4391L46.6799 29.4392C46.9891 29.4392 47.2406 29.6907 47.2407 30C47.2407 30.1546 47.173 30.2998 47.0763 30.3965C46.97 30.5028 46.8345 30.5608 46.6797 30.5609H36.7971L36.7972 40.4434C36.7972 40.5981 36.7392 40.7336 36.633 40.8399C36.5264 40.9464 36.3911 41.0042 36.2363 41.0043C35.927 41.0043 35.6755 40.7529 35.6755 40.4435Z" fill="url(#paint1_linear_912_610)"/>
<path d="M35.6755 40.4435L37.6755 40.4435L37.6755 40.4435L35.6755 40.4435ZM35.6754 30.5608L37.6754 30.5608L37.6754 28.5608L35.6754 28.5608L35.6754 30.5608ZM25.7929 30.5609L25.7924 32.5609H25.793L25.7929 30.5609ZM25.2321 30.0001L27.2321 30.0007L27.2321 29.9996L25.2321 30.0001ZM25.793 29.4392L25.7925 31.4392L25.793 31.4392L25.793 29.4392ZM35.6754 29.4392L35.6754 31.4392L37.6754 31.4392L37.6754 29.4393L35.6754 29.4392ZM35.6755 19.5568L37.6755 19.5568L37.6755 19.5562L35.6755 19.5568ZM36.2365 18.9958L36.2359 20.9958L36.2365 20.9958L36.2365 18.9958ZM36.7973 19.5566L38.7973 19.5566L38.7973 19.5555L36.7973 19.5566ZM36.7972 29.4391L34.7972 29.4391L34.7972 31.4391L36.7972 31.4391L36.7972 29.4391ZM46.6799 29.4392L46.6804 27.4392H46.6799L46.6799 29.4392ZM47.2407 30H49.2407V29.9994L47.2407 30ZM46.6797 30.5609L46.6797 32.5609H46.6808L46.6797 30.5609ZM36.7971 30.5609L36.7971 28.5609L34.7971 28.5609L34.7971 30.5609L36.7971 30.5609ZM36.7972 40.4434L38.7972 40.4434L38.7972 40.4434L36.7972 40.4434ZM36.2363 41.0043L36.2363 43.0043L36.2374 43.0043L36.2363 41.0043ZM37.6755 40.4435L37.6754 30.5608L33.6754 30.5609L33.6755 40.4435L37.6755 40.4435ZM35.6754 28.5608L25.7929 28.5609L25.793 32.5609L35.6755 32.5608L35.6754 28.5608ZM25.7935 28.5609C26.5876 28.5612 27.2324 29.2043 27.2321 30.0007L23.2321 29.9996C23.2318 31.4145 24.3794 32.5605 25.7924 32.5609L25.7935 28.5609ZM27.2321 29.9996C27.2324 30.795 26.5879 31.4395 25.7925 31.4392L25.7936 27.4392C24.379 27.4388 23.2318 28.5861 23.2321 30.0007L27.2321 29.9996ZM25.793 31.4392L35.6754 31.4392V27.4392L25.793 27.4392L25.793 31.4392ZM37.6754 29.4393L37.6755 19.5568L33.6755 19.5567L33.6754 29.4392L37.6754 29.4393ZM37.6755 19.5562C37.6757 20.3516 37.0313 20.996 36.2359 20.9958L36.2371 16.9958C34.8224 16.9954 33.6751 18.1427 33.6755 19.5573L37.6755 19.5562ZM36.2365 20.9958C35.4405 20.9958 34.7977 20.3514 34.7973 19.5577L38.7973 19.5555C38.7965 18.143 37.6509 16.9958 36.2365 16.9958L36.2365 20.9958ZM34.7973 19.5566L34.7972 29.4391L38.7972 29.4391L38.7973 19.5566L34.7973 19.5566ZM36.7972 31.4391L46.6799 31.4392L46.6799 27.4392L36.7972 27.4391L36.7972 31.4391ZM46.6793 31.4392C45.8845 31.4389 45.2409 30.7954 45.2407 30.0005L49.2407 29.9994C49.2403 28.586 48.0938 27.4396 46.6804 27.4392L46.6793 31.4392ZM45.2407 30C45.2407 29.5902 45.4085 29.2359 45.6621 28.9823L48.4905 31.8107C48.9375 31.3637 49.2407 30.7191 49.2407 30H45.2407ZM45.6621 28.9823C45.9245 28.7199 46.2948 28.5611 46.6786 28.5609L46.6808 32.5609C47.3741 32.5605 48.0154 32.2858 48.4905 31.8107L45.6621 28.9823ZM46.6797 28.5609L36.7971 28.5609V32.5609L46.6797 32.5609V28.5609ZM34.7971 30.5609L34.7972 40.4434L38.7972 40.4434L38.7971 30.5609L34.7971 30.5609ZM34.7972 40.4434C34.7972 40.0588 34.9562 39.6882 35.2187 39.4257L38.0472 42.2541C38.5222 41.779 38.7972 41.1374 38.7972 40.4434L34.7972 40.4434ZM35.2187 39.4257C35.4813 39.1631 35.8519 39.0045 36.2352 39.0043L36.2374 43.0043C36.9303 43.0039 37.5716 42.7297 38.0472 42.2541L35.2187 39.4257ZM36.2363 39.0043C37.0315 39.0043 37.6755 39.6483 37.6755 40.4435L33.6755 40.4435C33.6755 41.8574 34.8224 43.0043 36.2363 43.0043L36.2363 39.0043Z" fill="url(#paint2_linear_912_610)" mask="url(#path-3-inside-1_912_610)"/>
<defs>
<filter id="filter0_d_912_610" x="0" y="0" width="72" height="72" filterUnits="userSpaceOnUse" color-interpolation-filters="sRGB">
<feFlood flood-opacity="0" result="BackgroundImageFix"/>
<feColorMatrix in="SourceAlpha" type="matrix" values="0 0 0 0 0 0 0 0 0 0 0 0 0 0 0 0 0 0 127 0" result="hardAlpha"/>
<feOffset dy="6"/>
<feGaussianBlur stdDeviation="3"/>
<feComposite in2="hardAlpha" operator="out"/>
<feColorMatrix type="matrix" values="0 0 0 0 0.686275 0 0 0 0 0.215686 0 0 0 0 0.870588 0 0 0 0.2 0"/>
<feBlend mode="normal" in2="BackgroundImageFix" result="effect1_dropShadow_912_610"/>
<feBlend mode="normal" in="SourceGraphic" in2="effect1_dropShadow_912_610" result="shape"/>
</filter>
<linearGradient id="paint0_linear_912_610" x1="36" y1="0" x2="36" y2="60" gradientUnits="userSpaceOnUse">
<stop stop-color="#00A962"/>
<stop offset="0.567708" stop-color="#0E5C57"/>
<stop offset="0.671875" stop-color="#114E55"/>
<stop offset="1" stop-color="#19214F"/>
</linearGradient>
<linearGradient id="paint1_linear_912_610" x1="30.6182" y1="24.3818" x2="41.8546" y2="35.6183" gradientUnits="userSpaceOnUse">
<stop stop-color="#00A962"/>
<stop offset="1" stop-color="#19214F"/>
</linearGradient>
<linearGradient id="paint2_linear_912_610" x1="30.6182" y1="24.3818" x2="41.8546" y2="35.6183" gradientUnits="userSpaceOnUse">
<stop stop-color="#00A962"/>
<stop offset="0.567708" stop-color="#0E5C57"/>
<stop offset="0.671875" stop-color="#114E55"/>
<stop offset="1" stop-color="#19214F"/>
</linearGradient>
</defs>
</svg>
