<svg width="16" height="16" viewBox="0 0 16 16" fill="none" xmlns="http://www.w3.org/2000/svg">
<path d="M15.7779 8.20865C15.784 11.8711 13.2342 15.0415 9.65567 15.8211C6.07717 16.6007 2.43964 14.7781 0.921748 11.445C-0.596149 8.11197 0.416884 4.17154 3.35411 1.98382C6.29133 -0.203901 10.3568 -0.0460978 13.1156 2.36271L13.1156 0.443711C13.1156 0.198656 13.3143 0 13.5594 0C13.8044 0 14.0031 0.198656 14.0031 0.443711V3.54969C14.0031 3.79474 13.8044 3.9934 13.5594 3.9934H10.4534C10.2083 3.9934 10.0097 3.79474 10.0097 3.54969C10.0097 3.30463 10.2083 3.10598 10.4534 3.10598H12.6222C10.2116 0.929646 6.60699 0.736602 3.97775 2.64302C1.34851 4.54945 0.411573 8.03547 1.73081 11.0031C3.05005 13.9708 6.26571 15.6108 9.44255 14.9362C12.6194 14.2616 14.8911 11.4563 14.8905 8.20866C14.8905 7.9636 15.0891 7.76494 15.3342 7.76494C15.5793 7.76494 15.7779 7.9636 15.7779 8.20865Z" fill="#AAB2B7"/>
</svg>
