<svg width="16" height="16" viewBox="0 0 16 16" fill="none" xmlns="http://www.w3.org/2000/svg">
<path d="M15.8701 15.2432L10.9318 10.3049C13.1277 7.77156 12.9235 3.9544 10.4699 1.66971C8.01637 -0.614966 4.19437 -0.546874 1.82375 1.82375C-0.546873 4.19438 -0.614964 8.0164 1.66971 10.47C3.95439 12.9235 7.77154 13.1277 10.3049 10.9319L15.2432 15.8701C15.4163 16.0433 15.697 16.0433 15.8701 15.8702C16.0433 15.697 16.0432 15.4164 15.8701 15.2432ZM0.926492 6.24653C0.926492 3.30833 3.30837 0.926449 6.24656 0.926449C9.18475 0.926449 11.5666 3.30833 11.5666 6.24653C11.5666 9.18473 9.18474 11.5666 6.24655 11.5666C3.30975 11.5633 0.929839 9.18334 0.926492 6.24653Z" fill="#AAB2B7"/>
</svg>
