<svg width="25" height="24" viewBox="0 0 25 24" fill="none" xmlns="http://www.w3.org/2000/svg">
<path d="M20.7784 20.975L14.2034 14.4C13.7034 14.8333 13.1204 15.1708 12.4544 15.4125C11.7885 15.6541 11.0798 15.775 10.3284 15.775C8.52572 15.775 7.00004 15.15 5.75139 13.9C4.50274 12.65 3.87842 11.1416 3.87842 9.37498C3.87842 7.60831 4.50342 6.09998 5.75342 4.84998C7.00342 3.59998 8.51592 2.97498 10.2909 2.97498C12.0659 2.97498 13.5743 3.59998 14.8159 4.84998C16.0576 6.09998 16.6784 7.60956 16.6784 9.37873C16.6784 10.0929 16.5618 10.7833 16.3284 11.45C16.0951 12.1166 15.7451 12.7416 15.2784 13.325L21.8784 19.875L20.7784 20.975ZM10.3034 14.275C11.6576 14.275 12.8086 13.7958 13.7565 12.8375C14.7045 11.8791 15.1784 10.725 15.1784 9.37498C15.1784 8.02498 14.7045 6.87081 13.7565 5.91248C12.8086 4.95414 11.6576 4.47498 10.3034 4.47498C8.93537 4.47498 7.77252 4.95414 6.81487 5.91248C5.85723 6.87081 5.37842 8.02498 5.37842 9.37498C5.37842 10.725 5.85723 11.8791 6.81487 12.8375C7.77252 13.7958 8.93537 14.275 10.3034 14.275Z" fill="#FEFEFE"/>
</svg>
