<svg width="16" height="16" viewBox="0 0 16 16" fill="none" xmlns="http://www.w3.org/2000/svg">
<path d="M15.327 6.15116L14.3243 5.90071C14.2239 5.59535 14.1014 5.29769 13.9578 5.01008L14.488 4.12639C14.6984 3.77671 14.6432 3.32862 14.3543 3.04042L12.9595 1.64583C12.6712 1.35705 12.2233 1.3019 11.8736 1.51214L10.9899 2.04233C10.7023 1.89874 10.4046 1.77623 10.0992 1.67579L9.84896 0.673162C9.75038 0.277154 9.39447 -0.000599842 8.98638 9.72823e-07H7.01374C6.60578 -0.000436764 6.25006 0.277283 6.15151 0.673162L5.90107 1.67579C5.59571 1.77623 5.29805 1.89874 5.01044 2.04233L4.12656 1.51215C3.7769 1.30169 3.32878 1.35685 3.0406 1.64583L1.64583 3.0406C1.3569 3.3288 1.30173 3.77689 1.51215 4.12656L2.04233 5.01026C1.89874 5.29786 1.77623 5.59553 1.67579 5.90089L0.673162 6.15116C0.277154 6.24974 -0.000599842 6.60565 9.72823e-07 7.01374V8.98642C-0.000436764 9.39438 0.277283 9.7501 0.673162 9.84865L1.67579 10.0991C1.77623 10.4045 1.89874 10.7021 2.04233 10.9897L1.51215 11.8736C1.30173 12.2232 1.3569 12.6713 1.64583 12.9595L3.0406 14.3543C3.3287 14.6434 3.77694 14.6986 4.12656 14.488L5.01026 13.9578C5.29786 14.1014 5.59553 14.2239 5.90089 14.3243L6.15133 15.327C6.2499 15.7229 6.60571 16.0006 7.01374 16.0001L8.98642 16.0001C9.39438 16.0006 9.7501 15.7228 9.84865 15.327L10.0991 14.3243C10.4045 14.2239 10.7021 14.1014 10.9897 13.9578L11.8734 14.488C12.2231 14.6983 12.6712 14.6432 12.9594 14.3543L14.3541 12.9595C14.6431 12.6713 14.6983 12.2232 14.4878 11.8736L13.9577 10.9899C14.1012 10.7023 14.2238 10.4046 14.3242 10.0992L15.3268 9.84878C15.7228 9.75027 16.0006 9.39444 16.0001 8.98638L16.0001 7.01374C16.0007 6.60565 15.723 6.24974 15.327 6.15116ZM15.1112 8.98638L13.866 9.29749C13.7123 9.33591 13.5906 9.45323 13.5467 9.60545C13.4289 10.017 13.2653 10.414 13.0591 10.7891C12.9823 10.9278 12.9853 11.0969 13.0669 11.2328L13.7257 12.3309L12.331 13.7257L11.2329 13.0668C11.097 12.9851 10.9279 12.9821 10.7891 13.0589C10.4141 13.2652 10.017 13.4289 9.60554 13.5468C9.45332 13.5907 9.336 13.7123 9.29758 13.866L8.98638 15.1112H7.01374L6.70263 13.866C6.66421 13.7123 6.54688 13.5906 6.39467 13.5467C5.98317 13.4289 5.58616 13.2653 5.21106 13.0591C5.07233 12.9823 4.90322 12.9853 4.76728 13.0669L3.66918 13.7257L2.27442 12.331L2.93336 11.2329C3.01498 11.097 3.01796 10.9279 2.94118 10.7891C2.73489 10.4141 2.57126 10.017 2.45335 9.60554C2.40943 9.45332 2.2878 9.336 2.13411 9.29758L0.888896 8.98638V7.01374L2.13415 6.70263C2.28785 6.66421 2.40947 6.54688 2.4534 6.39467C2.57125 5.98316 2.73482 5.58615 2.94105 5.21106C3.01783 5.07234 3.01485 4.90321 2.93322 4.76728L2.27437 3.66918L3.66914 2.27442L4.76719 2.93336C4.90309 3.01508 5.07228 3.01806 5.21097 2.94118C5.58606 2.73489 5.98307 2.57126 6.39458 2.45335C6.54679 2.40943 6.66412 2.2878 6.70254 2.13411L7.01374 0.888896H8.98642L9.29753 2.13415C9.33595 2.28785 9.45328 2.40947 9.60549 2.4534C10.017 2.57125 10.414 2.73482 10.7891 2.94105C10.9279 3.01761 11.0969 3.01463 11.2329 2.93322L12.331 2.27437L13.7257 3.66914L13.0668 4.76719C12.9851 4.90312 12.9822 5.07225 13.0589 5.21097C13.2652 5.58606 13.4289 5.98307 13.5468 6.39458C13.5907 6.54679 13.7123 6.66412 13.866 6.70254L15.1113 7.01365L15.1112 8.98638ZM8.00006 4.88893C6.28183 4.88893 4.88893 6.28183 4.88893 8.00006C4.88893 9.71829 6.28183 11.1112 8.00006 11.1112C9.71829 11.1112 11.1112 9.71829 11.1112 8.00006C11.1093 6.28263 9.71749 4.89086 8.00006 4.88893ZM8.00006 10.2223C6.77275 10.2223 5.77782 9.22737 5.77782 8.00006C5.77782 6.77275 6.77275 5.77782 8.00006 5.77782C9.22737 5.77782 10.2223 6.77275 10.2223 8.00006C10.2208 9.22677 9.22677 10.2209 8.00006 10.2223Z" fill="#AAB2B7"/>
</svg>
