<svg width="12" height="12" viewBox="0 0 12 12" fill="none" xmlns="http://www.w3.org/2000/svg">
<path d="M11.9482 11.5381C11.9482 11.7739 11.7637 11.9587 11.5278 11.9587H0.46106C0.22522 11.9587 0.0405273 11.7739 0.0405273 11.5381V0.47168C0.0405273 0.235596 0.22522 0.0507812 0.46106 0.0507812C0.697144 0.0507812 0.881836 0.235596 0.881836 0.47168V11.1174H11.5278C11.7637 11.1174 11.9482 11.3022 11.9482 11.5381Z" fill="#00A962"/>
<path d="M4.10986 3.45027C4.10986 3.21831 4.2979 3.03027 4.52986 3.03027H4.68986C4.92182 3.03027 5.10986 3.21831 5.10986 3.45027V9.50027C5.10986 9.73223 4.92182 9.92027 4.68986 9.92027H4.52986C4.2979 9.92027 4.10986 9.73223 4.10986 9.50027V3.45027Z" fill="#00A962"/>
<path d="M2.08008 3.45027C2.08008 3.21831 2.26812 3.03027 2.50008 3.03027H2.66008C2.89204 3.03027 3.08008 3.21831 3.08008 3.45027V9.50027C3.08008 9.73223 2.89204 9.92027 2.66008 9.92027H2.50008C2.26812 9.92027 2.08008 9.73223 2.08008 9.50027V3.45027Z" fill="#00A962"/>
<path d="M8.16992 3.45027C8.16992 3.21831 8.35796 3.03027 8.58992 3.03027H8.74992C8.98188 3.03027 9.16992 3.21831 9.16992 3.45027V9.50027C9.16992 9.73223 8.98188 9.92027 8.74992 9.92027H8.58992C8.35796 9.92027 8.16992 9.73223 8.16992 9.50027V3.45027Z" fill="#00A962"/>
<path d="M10.2 6.4698C10.2 6.23784 10.388 6.0498 10.62 6.0498H10.78C11.0119 6.0498 11.2 6.23785 11.2 6.4698V9.4998C11.2 9.73176 11.0119 9.9198 10.78 9.9198H10.62C10.388 9.9198 10.2 9.73176 10.2 9.4998V6.4698Z" fill="#00A962"/>
<path d="M6.14014 6.4698C6.14014 6.23784 6.32818 6.0498 6.56014 6.0498H6.72014C6.9521 6.0498 7.14014 6.23785 7.14014 6.4698V9.4998C7.14014 9.73176 6.9521 9.9198 6.72014 9.9198H6.56014C6.32818 9.9198 6.14014 9.73176 6.14014 9.4998V6.4698Z" fill="#00A962"/>
</svg>
