<svg width="289" height="280" viewBox="0 0 289 280" fill="none" xmlns="http://www.w3.org/2000/svg">
<ellipse cx="202" cy="88" rx="87" ry="88" fill="url(#paint0_linear_25_1437)"/>
<path d="M49.0588 88.9873L49.9459 91.8502C50.0802 92.2846 50.4205 92.6249 50.8549 92.7592L53.7178 93.6464C53.9734 93.7252 53.9734 94.0873 53.7178 94.1669L50.8549 95.0541C50.4205 95.1884 50.0802 95.5286 49.9459 95.9631L49.0588 98.826C48.9799 99.0815 48.6178 99.0815 48.5382 98.826L47.6511 95.9631C47.5167 95.5286 47.1765 95.1884 46.7421 95.0541L43.8792 94.1669C43.6236 94.0881 43.6236 93.7259 43.8792 93.6464L46.7421 92.7592C47.1765 92.6249 47.5168 92.2846 47.6511 91.8502L48.5382 88.9873C48.6178 88.7318 48.9799 88.7318 49.0588 88.9873Z" fill="#E8E8E8"/>
<path d="M149.135 279.592H241.133C244.359 279.592 246.974 276.977 246.974 273.751H149.135V279.592Z" fill="url(#paint1_linear_25_1437)"/>
<path d="M241.133 279.592H135.993C132.767 279.592 130.152 276.977 130.152 273.751V212.419C130.152 209.194 132.767 206.578 135.993 206.578H241.133C244.359 206.578 246.974 209.194 246.974 212.419V273.751C246.974 276.977 244.359 279.592 241.133 279.592Z" fill="url(#paint2_linear_25_1437)"/>
<path opacity="0.15" d="M203.854 248.926C203.854 250.539 202.546 251.847 200.933 251.847H186.33C184.717 251.847 183.41 250.539 183.41 248.926V240.165C183.41 238.552 184.717 237.244 186.33 237.244H200.933C202.546 237.244 203.854 238.552 203.854 240.165V248.926Z" fill="black"/>
<path d="M203.854 247.466C203.854 249.079 202.546 250.387 200.933 250.387H186.33C184.717 250.387 183.41 249.079 183.41 247.466V238.705C183.41 237.092 184.717 235.784 186.33 235.784H200.933C202.546 235.784 203.854 237.092 203.854 238.705V247.466Z" fill="url(#paint3_linear_25_1437)"/>
<path opacity="0.15" d="M206.143 273.751H187.16C185.547 273.751 184.239 272.444 184.239 270.831V262.069C184.239 260.456 185.547 259.148 187.16 259.148H206.143C207.756 259.148 209.064 260.456 209.064 262.069V270.831C209.064 272.444 207.756 273.751 206.143 273.751Z" fill="black"/>
<path d="M206.143 272.291H187.16C185.547 272.291 184.239 270.983 184.239 269.37V260.609C184.239 258.996 185.547 257.688 187.16 257.688H206.143C207.756 257.688 209.064 258.996 209.064 260.609V269.37C209.064 270.983 207.756 272.291 206.143 272.291Z" fill="url(#paint4_linear_25_1437)"/>
<path opacity="0.15" d="M227.769 248.926C227.769 250.539 226.461 251.847 224.848 251.847H208.785C207.172 251.847 205.865 250.539 205.865 248.926V240.165C205.865 238.552 207.172 237.244 208.785 237.244H224.848C226.461 237.244 227.769 238.552 227.769 240.165V248.926Z" fill="black"/>
<path opacity="0.15" d="M206.27 232.739H184.366C182.753 232.739 181.445 231.431 181.445 229.819V221.057C181.445 219.444 182.753 218.136 184.366 218.136H206.27C207.883 218.136 209.19 219.444 209.19 221.057V229.819C209.19 231.431 207.883 232.739 206.27 232.739Z" fill="black"/>
<path opacity="0.15" d="M224.619 232.739H215.857C214.244 232.739 212.937 231.431 212.937 229.819V221.057C212.937 219.444 214.244 218.136 215.857 218.136H224.619C226.232 218.136 227.539 219.444 227.539 221.057V229.819C227.539 231.431 226.232 232.739 224.619 232.739Z" fill="black"/>
<path opacity="0.15" d="M236.752 232.739H227.991C226.378 232.739 225.07 231.431 225.07 229.819V221.057C225.07 219.444 226.378 218.136 227.991 218.136H236.752C238.365 218.136 239.673 219.444 239.673 221.057V229.819C239.673 231.431 238.365 232.739 236.752 232.739Z" fill="black"/>
<path opacity="0.15" d="M236.752 237.244H227.991C226.378 237.244 225.07 238.552 225.07 240.165V257.688C225.07 258.495 224.417 259.148 223.61 259.148H206.086C204.474 259.148 203.166 260.456 203.166 262.069V270.831C203.166 272.444 204.474 273.751 206.086 273.751H236.752C238.365 273.751 239.673 272.444 239.673 270.831V240.165C239.673 238.552 238.365 237.244 236.752 237.244Z" fill="black"/>
<path d="M227.769 247.466C227.769 249.079 226.461 250.387 224.848 250.387H208.785C207.172 250.387 205.865 249.079 205.865 247.466V238.705C205.865 237.092 207.172 235.784 208.785 235.784H224.848C226.461 235.784 227.769 237.092 227.769 238.705V247.466Z" fill="url(#paint5_linear_25_1437)"/>
<path d="M206.27 231.361H184.366C182.753 231.361 181.445 230.054 181.445 228.441V219.679C181.445 218.066 182.753 216.758 184.366 216.758H206.27C207.883 216.758 209.19 218.066 209.19 219.679V228.441C209.19 230.054 207.883 231.361 206.27 231.361Z" fill="url(#paint6_linear_25_1437)"/>
<path d="M224.619 231.361H215.857C214.244 231.361 212.937 230.054 212.937 228.441V219.679C212.937 218.066 214.244 216.758 215.857 216.758H224.619C226.232 216.758 227.539 218.066 227.539 219.679V228.441C227.539 230.054 226.232 231.361 224.619 231.361Z" fill="url(#paint7_linear_25_1437)"/>
<path d="M236.752 231.361H227.991C226.378 231.361 225.07 230.054 225.07 228.441V219.679C225.07 218.066 226.378 216.758 227.991 216.758H236.752C238.365 216.758 239.673 218.066 239.673 219.679V228.441C239.673 230.054 238.365 231.361 236.752 231.361Z" fill="url(#paint8_linear_25_1437)"/>
<path d="M236.752 235.784H227.991C226.378 235.784 225.07 237.092 225.07 238.705V254.768C225.07 255.574 224.417 257.688 223.61 257.688H206.086C204.474 257.688 203.166 258.996 203.166 260.609V269.37C203.166 270.983 204.474 272.291 206.086 272.291H236.752C238.365 272.291 239.673 270.983 239.673 269.37V238.705C239.673 237.092 238.365 235.784 236.752 235.784Z" fill="url(#paint9_linear_25_1437)"/>
<path d="M73.0662 251.066C77.2229 236.768 71.346 217.175 60.0076 207.525L52.266 200.936C51.0926 199.937 49.2797 200.481 48.8497 201.96L46.0116 211.722C41.8549 226.019 47.7318 245.612 59.0702 255.263L69.3119 263.978L73.0662 251.066Z" fill="url(#paint10_linear_25_1437)"/>
<path d="M73.2228 263.279C71.1959 243.054 57.489 225.901 38.2089 219.462L35.909 218.694C34.448 218.207 32.9695 219.388 33.1228 220.921L33.3645 223.334C35.3913 243.559 49.0983 260.712 68.3783 267.15L73.7923 268.958L73.2228 263.279Z" fill="url(#paint11_linear_25_1437)"/>
<path d="M63.9748 259.148H52.7555C41.9582 248.926 34.7919 237.731 33.3666 223.557L33.1242 221.028C33.0717 220.564 33.1768 220.309 33.3878 219.951L63.9748 259.148Z" fill="url(#paint12_linear_25_1437)"/>
<path d="M93.4579 279.592H56.951C48.8858 279.592 42.3481 273.055 42.3481 264.99V256.228H108.061V264.99C108.061 273.055 101.523 279.592 93.4579 279.592Z" fill="url(#paint13_linear_25_1437)"/>
<path d="M62.7921 279.592H56.951C48.8902 279.592 42.3481 273.05 42.3481 264.99V256.228H48.1892V264.99C48.1892 273.05 54.7313 279.592 62.7921 279.592Z" fill="url(#paint14_linear_25_1437)"/>
<path d="M109.521 257.688H40.8879C40.0811 257.688 39.4276 256.464 39.4276 255.657V252.736C39.4276 251.93 40.0811 251.847 40.8879 251.847H109.521C110.361 251.847 110.981 251.957 110.981 252.798V255.596C110.981 256.437 110.361 257.688 109.521 257.688Z" fill="url(#paint15_linear_25_1437)"/>
<rect x="42.5321" y="257.257" width="51.2566" height="3.2717" fill="url(#paint16_linear_25_1437)"/>
<path d="M68.1009 251.847H63.3842C59.9964 241.829 53.6003 233.112 45.1307 226.876C45.0285 225.912 44.9409 224.949 44.8824 223.985C55.7469 230.162 63.9975 240.092 68.1009 251.847Z" fill="url(#paint17_linear_25_1437)"/>
<path d="M188.085 34.2653H77.1041C69.0389 34.2653 62.5013 40.8029 62.5013 48.8681V82.4545C62.5013 83.0233 62.18 83.5439 61.6703 83.798L61.1921 84.0367C60.2042 84.5303 59.58 85.5401 59.58 86.6448V104.945C59.58 106.05 60.2042 107.059 61.1921 107.553L61.6703 107.792C62.1793 108.047 62.5005 108.567 62.5005 109.135V116.041C62.5005 116.61 62.1793 117.13 61.6696 117.385L61.1913 117.624C60.2035 118.117 59.5792 119.127 59.5792 120.232V136.537C59.5792 137.505 60.0574 138.41 60.8569 138.956L61.847 139.631C62.2567 139.909 62.5013 140.371 62.5013 140.866V264.99C62.5013 273.055 69.0389 279.592 77.1041 279.592H188.085C196.15 279.592 202.688 273.055 202.688 264.99V48.8681C202.688 40.8029 196.15 34.2653 188.085 34.2653Z" fill="url(#paint18_linear_25_1437)"/>
<path opacity="0.15" d="M188.853 254.768H74.9511C72.5315 254.768 70.5703 252.806 70.5703 250.387V53.2489C70.5703 50.8292 72.5315 48.868 74.9511 48.868H188.853C191.273 48.868 193.234 50.8292 193.234 53.2489V250.387C193.234 252.806 191.273 254.768 188.853 254.768Z" fill="black"/>
<path d="M188.853 253.307H74.9511C72.5315 253.307 70.5703 251.346 70.5703 248.926V51.7887C70.5703 49.369 72.5315 47.4078 74.9511 47.4078H188.853C191.273 47.4078 193.234 49.369 193.234 51.7887V248.926C193.234 251.346 191.273 253.307 188.853 253.307Z" fill="url(#paint19_linear_25_1437)"/>
<path d="M151.42 56.6279C151.42 55.4181 150.439 54.4375 149.229 54.4375H112.722C111.513 54.4375 110.532 55.4181 110.532 56.6279C110.532 57.8378 111.513 58.8184 112.722 58.8184H149.229C150.439 58.8184 151.42 57.8378 151.42 56.6279Z" fill="url(#paint20_linear_25_1437)"/>
<ellipse cx="130.861" cy="266.527" rx="7.63396" ry="7.08868" fill="url(#paint21_linear_25_1437)"/>
<path d="M166.679 237.244C166.679 241.277 163.41 244.546 159.378 244.546H87.8239C83.7913 244.546 80.5225 241.277 80.5225 237.244C80.5225 233.212 83.7913 229.943 87.8239 229.943H159.378C163.41 229.943 166.679 233.212 166.679 237.244Z" fill="url(#paint22_linear_25_1437)"/>
<path d="M177.14 237.244C177.14 241.277 173.871 244.546 169.839 244.546C165.806 244.546 162.537 241.277 162.537 237.244C162.537 233.212 165.806 229.943 169.839 229.943C173.871 229.943 177.14 233.212 177.14 237.244Z" fill="url(#paint23_linear_25_1437)"/>
<path d="M193.234 68.4964H70.5703V64.1156C70.5703 61.6959 72.5315 59.7347 74.9511 59.7347H188.853C191.273 59.7347 193.234 61.6959 193.234 64.1156V68.4964Z" fill="url(#paint24_linear_25_1437)"/>
<path d="M160.631 211.037C160.631 212.65 159.323 213.958 157.71 213.958H49.6496C48.0367 213.958 46.729 212.65 46.729 211.037V170.149C46.729 168.536 48.0367 167.229 49.6496 167.229H157.71C159.323 167.229 160.631 168.536 160.631 170.149V211.037Z" fill="url(#paint25_linear_25_1437)"/>
<path d="M115.278 180.737C115.278 181.947 114.297 182.927 113.088 182.927H66.3586C65.1488 182.927 64.1682 181.947 64.1682 180.737C64.1682 179.527 65.1488 178.547 66.3586 178.547H113.088C114.297 178.547 115.278 179.527 115.278 180.737Z" fill="#B6B9B9"/>
<path d="M94.2232 190.404C94.2232 191.613 93.2426 192.594 92.0328 192.594H67.208C65.9981 192.594 65.0176 191.613 65.0176 190.404C65.0176 189.194 65.9981 188.213 67.208 188.213H92.0328C93.2426 188.213 94.2232 189.194 94.2232 190.404Z" fill="#B6B9B9"/>
<path d="M111.077 200.07C111.077 201.28 110.097 202.261 108.887 202.261H66.5389C65.3291 202.261 64.3485 201.28 64.3485 200.07C64.3485 198.86 65.3291 197.88 66.5389 197.88H108.887C110.097 197.88 111.077 198.86 111.077 200.07Z" fill="#B6B9B9"/>
<path d="M131.113 200.07C131.113 201.28 130.132 202.261 128.923 202.261H111.399C110.189 202.261 109.209 201.28 109.209 200.07C109.209 198.86 110.189 197.88 111.399 197.88H128.923C130.132 197.88 131.113 198.86 131.113 200.07Z" fill="#B6B9B9"/>
<path d="M126.374 178.173C123.954 178.173 121.993 180.135 121.993 182.554C121.993 180.135 120.032 178.173 117.612 178.173C115.192 178.173 113.231 180.135 113.231 182.554C113.231 187.393 121.993 192.776 121.993 192.776C121.993 192.776 130.754 187.393 130.754 182.554C130.754 180.135 128.793 178.173 126.374 178.173Z" fill="url(#paint26_linear_25_1437)"/>
<path d="M111.883 190.404C111.883 191.613 110.902 192.594 109.692 192.594H96.5497C95.3398 192.594 94.3593 191.613 94.3593 190.404C94.3593 189.194 95.3398 188.213 96.5497 188.213H109.692C110.902 188.213 111.883 189.194 111.883 190.404Z" fill="#B6B9B9"/>
<path d="M57.7006 165.771H50.3992V173.073C50.3992 177.105 53.668 180.374 57.7006 180.374C61.7331 180.374 65.002 177.105 65.002 173.073C65.002 169.04 61.7331 165.771 57.7006 165.771Z" fill="url(#paint27_linear_25_1437)"/>
<path d="M57.4516 168.732H53.0708V170.192V173.113C53.0708 175.537 55.0276 177.494 57.4516 177.494C59.6275 177.494 61.4236 175.917 61.7595 173.843C61.8179 173.609 61.8325 173.361 61.8325 173.113C61.8325 170.689 59.8757 168.732 57.4516 168.732Z" fill="url(#paint28_linear_25_1437)"/>
<path d="M7.30139 165.771H14.6028V173.073C14.6028 177.105 11.334 180.374 7.30139 180.374C3.26883 180.374 0 177.105 0 173.073C0 169.04 3.26883 165.771 7.30139 165.771Z" fill="url(#paint29_linear_25_1437)"/>
<path d="M7.30136 168.732C4.8773 168.732 2.92053 170.689 2.92053 173.113C2.92053 173.361 2.93515 173.609 2.99355 173.843C3.32942 175.917 5.12556 177.494 7.30136 177.494C9.72545 177.494 11.6822 175.537 11.6822 173.113V170.192V168.732H7.30136Z" fill="url(#paint30_linear_25_1437)"/>
<path d="M36.507 199.1C21.9903 199.1 10.2219 187.331 10.2219 172.815V155.291C10.2219 140.688 62.792 140.688 62.792 155.291V172.815C62.792 187.331 51.0236 199.1 36.507 199.1Z" fill="url(#paint31_linear_25_1437)"/>
<ellipse cx="47.9849" cy="170.142" rx="5.45283" ry="4.90755" fill="white"/>
<circle cx="24.5377" cy="170.142" r="4.90755" fill="white"/>
<path d="M51.1098 160.641H45.2686C44.4618 160.641 43.8083 161.294 43.8083 162.101C43.8083 162.908 44.4618 163.561 45.2686 163.561H51.1098C51.9166 163.561 52.57 162.908 52.57 162.101C52.57 161.294 51.9166 160.641 51.1098 160.641Z" fill="url(#paint32_linear_25_1437)"/>
<path d="M27.7454 160.641H21.9042C21.0974 160.641 20.444 161.294 20.444 162.101C20.444 162.908 21.0974 163.561 21.9042 163.561H27.7454C28.5522 163.561 29.2056 162.908 29.2056 162.101C29.2056 161.294 28.5522 160.641 27.7454 160.641Z" fill="url(#paint33_linear_25_1437)"/>
<path d="M36.507 178.844C34.8941 178.844 33.5864 177.536 33.5864 175.923V174.463C33.5864 172.85 34.8941 171.542 36.507 171.542C38.1199 171.542 39.4276 172.85 39.4276 174.463V175.923C39.4276 177.536 38.1199 178.844 36.507 178.844Z" fill="url(#paint34_linear_25_1437)"/>
<path opacity="0.05" d="M61.6738 173.237C61.6738 173.485 61.6592 173.733 61.6008 173.967C61.265 171.893 59.4688 170.316 57.293 170.316H54.3724V168.856H57.293C59.7171 168.856 61.6738 170.813 61.6738 173.237Z" fill="black"/>
<path d="M27.0151 170.38C27.0151 171.592 26.0367 172.571 24.8247 172.571C23.6126 172.571 22.6343 171.592 22.6343 170.38C22.6343 169.168 23.6126 168.19 24.8247 168.19C24.8831 168.19 24.9561 168.19 25.0145 168.204C24.8977 168.409 24.8247 168.657 24.8247 168.92C24.8247 169.723 25.4818 170.38 26.285 170.38C26.5479 170.38 26.7961 170.307 27.0005 170.19C27.0151 170.249 27.0151 170.322 27.0151 170.38Z" fill="url(#paint35_linear_25_1437)"/>
<path opacity="0.05" d="M2.92053 173.237C2.92053 173.485 2.93515 173.733 2.99355 173.967C3.32942 171.893 5.12556 170.316 7.30136 170.316H10.2219V168.856H7.30136C4.8773 168.856 2.92053 170.813 2.92053 173.237Z" fill="black"/>
<path d="M50.3796 170.38C50.3796 171.592 49.4012 172.571 48.1892 172.571C46.9772 172.571 45.9988 171.592 45.9988 170.38C45.9988 169.168 46.9772 168.19 48.1892 168.19C48.2476 168.19 48.3206 168.19 48.379 168.204C48.2622 168.409 48.1892 168.657 48.1892 168.92C48.1892 169.723 48.8463 170.38 49.6495 170.38C49.9123 170.38 50.1606 170.307 50.365 170.19C50.3796 170.249 50.3796 170.322 50.3796 170.38Z" fill="url(#paint36_linear_25_1437)"/>
<path d="M45.2687 182.529C45.2687 185.304 43.9691 187.786 41.9539 189.392C40.4644 190.59 38.566 191.291 36.507 191.291C34.448 191.291 32.5497 190.59 31.0602 189.392C29.045 187.786 27.7454 185.304 27.7454 182.529H45.2687Z" fill="url(#paint37_linear_25_1437)"/>
<rect x="27.2642" y="182.033" width="18.5396" height="1.09057" fill="white"/>
<path d="M41.9539 189.315C40.4644 190.512 38.566 191.213 36.507 191.213C34.448 191.213 32.5497 190.512 31.0602 189.315C31.8925 187.519 34.0246 186.832 36.507 186.832C38.9895 186.832 41.1215 187.519 41.9539 189.315Z" fill="url(#paint38_linear_25_1437)"/>
<path d="M46.729 126.053H39.4276C36.9977 126.053 35.0292 128.032 35.0467 130.466C35.0526 131.261 34.3808 131.895 33.5864 131.895H23.3645C14.4933 131.895 7.30139 139.086 7.30139 147.958V152.339V166.941H8.76167C9.56848 166.941 10.222 167.595 10.222 168.402V177.163H11.6822C13.2951 177.163 14.6028 175.856 14.6028 174.243V158.18C14.6028 156.567 15.9105 155.259 17.5234 155.259H55.4906C57.1035 155.259 58.4112 156.567 58.4112 158.18V174.243C58.4112 175.856 59.7189 177.163 61.3318 177.163H62.792V168.402C62.792 167.595 63.4455 166.941 64.2523 166.941H65.7126V152.339V145.037C65.7126 134.553 57.213 126.053 46.729 126.053Z" fill="url(#paint39_linear_25_1437)"/>
<path d="M12.4299 147.22C12.2678 147.22 12.1042 147.193 11.9428 147.136C11.1828 146.867 10.7841 146.033 11.0528 145.272C13.1118 139.449 18.6463 135.537 24.8247 135.537H33.5864C34.3925 135.537 35.0467 136.192 35.0467 136.998C35.0467 137.804 34.3925 138.458 33.5864 138.458H24.8247C19.881 138.458 15.4534 141.587 13.8069 146.246C13.5952 146.844 13.0322 147.22 12.4299 147.22Z" fill="url(#paint40_linear_25_1437)"/>
<path opacity="0.15" d="M115.95 144.023V145.484C115.95 147.09 117.264 148.404 118.871 148.404H196.265V146.944H118.871C117.264 146.944 115.95 145.63 115.95 144.023Z" fill="black"/>
<path opacity="0.15" d="M146.745 210.308V211.768C146.745 213.375 145.431 214.689 143.825 214.689H66.4297V213.229H143.825C145.431 213.229 146.745 211.914 146.745 210.308Z" fill="black"/>
<path d="M226.13 104.515C226.13 102.902 224.822 101.594 223.209 101.594H115.149C113.536 101.594 112.228 102.902 112.228 104.515V145.439C112.228 147.032 113.519 148.323 115.112 148.323H223.209C224.822 148.323 226.13 147.015 226.13 145.402V104.515Z" fill="url(#paint41_linear_25_1437)"/>
<path d="M198.131 115.833C198.131 114.624 197.151 113.643 195.941 113.643H146.291C145.082 113.643 144.101 114.624 144.101 115.833C144.101 117.043 145.082 118.024 146.291 118.024H195.941C197.151 118.024 198.131 117.043 198.131 115.833Z" fill="#B6B9B9"/>
<path d="M196.751 125.5C196.751 124.29 195.771 123.31 194.561 123.31H169.736C168.526 123.31 167.545 124.29 167.545 125.5C167.545 126.71 168.526 127.69 169.736 127.69H194.561C195.771 127.69 196.751 126.71 196.751 125.5Z" fill="#B6B9B9"/>
<path d="M197.7 135.166C197.7 133.957 196.72 132.976 195.51 132.976H153.162C151.952 132.976 150.971 133.957 150.971 135.166C150.971 136.376 151.952 137.357 153.162 137.357H195.51C196.72 137.357 197.7 136.376 197.7 135.166Z" fill="#B6B9B9"/>
<path d="M152.453 135.166C152.453 133.957 151.472 132.976 150.262 132.976H132.739C131.529 132.976 130.548 133.957 130.548 135.166C130.548 136.376 131.529 137.357 132.739 137.357H150.262C151.472 137.357 152.453 136.376 152.453 135.166Z" fill="#B6B9B9"/>
<path d="M167.423 125.5C167.423 124.29 166.443 123.31 165.233 123.31H149.17C147.96 123.31 146.979 124.29 146.979 125.5C146.979 126.71 147.96 127.69 149.17 127.69H165.233C166.443 127.69 167.423 126.71 167.423 125.5Z" fill="#B6B9B9"/>
<ellipse cx="138.386" cy="120.712" rx="7.63396" ry="7.08868" fill="url(#paint42_linear_25_1437)"/>
<path d="M142.702 120.548C142.702 122.967 140.741 124.929 138.322 124.929C135.902 124.929 133.941 122.967 133.941 120.548H142.702Z" fill="white"/>
<path d="M249.895 119.841H194.404C191.984 119.841 190.023 117.88 190.023 115.46V106.698C190.023 104.279 191.984 102.318 194.404 102.318H249.895C252.315 102.318 254.276 104.279 254.276 106.698V115.46C254.276 117.88 252.315 119.841 249.895 119.841Z" fill="url(#paint43_linear_25_1437)"/>
<path d="M244.054 131.74H200.245C197.02 131.74 194.404 129.125 194.404 125.899V95.2333C194.404 92.0076 197.02 89.3922 200.245 89.3922H244.054C247.28 89.3922 249.895 92.0076 249.895 95.2333V125.899C249.895 129.125 247.28 131.74 244.054 131.74Z" fill="url(#paint44_linear_25_1437)"/>
<rect x="228.962" y="78.7003" width="3.2717" height="9.81509" fill="url(#paint45_linear_25_1437)"/>
<ellipse cx="230.331" cy="75.8673" rx="4.90755" ry="4.36226" fill="url(#paint46_linear_25_1437)"/>
<ellipse cx="233.382" cy="111.423" rx="5.45283" ry="4.90755" fill="white"/>
<path d="M236.022 111C236.022 112.212 235.044 113.191 233.832 113.191C232.62 113.191 231.641 112.212 231.641 111C231.641 109.788 232.62 108.81 233.832 108.81C233.89 108.81 233.963 108.81 234.022 108.824C233.905 109.029 233.832 109.277 233.832 109.54C233.832 110.343 234.489 111 235.292 111C235.555 111 235.803 110.927 236.008 110.81C236.022 110.869 236.022 110.942 236.022 111Z" fill="url(#paint47_linear_25_1437)"/>
<ellipse cx="220.388" cy="111.423" rx="5.45283" ry="4.90755" fill="white"/>
<path d="M222.803 111C222.803 112.212 221.825 113.191 220.613 113.191C219.401 113.191 218.422 112.212 218.422 111C218.422 109.788 219.401 108.81 220.613 108.81C220.671 108.81 220.744 108.81 220.803 108.824C220.686 109.029 220.613 109.277 220.613 109.54C220.613 110.343 221.27 111 222.073 111C222.336 111 222.584 110.927 222.789 110.81C222.803 110.869 222.803 110.942 222.803 111Z" fill="url(#paint48_linear_25_1437)"/>
<rect x="225.304" y="117.019" width="10.9057" height="1.09057" fill="white"/>
<path d="M238.213 102.704C238.213 103.511 237.559 104.164 236.752 104.164H230.911C230.104 104.164 229.451 103.511 229.451 102.704C229.451 101.897 230.104 101.244 230.911 101.244H236.752C237.559 101.244 238.213 101.897 238.213 102.704Z" fill="url(#paint49_linear_25_1437)"/>
<path d="M224.836 102.704C224.836 103.511 224.182 104.164 223.376 104.164H217.534C216.728 104.164 216.074 103.511 216.074 102.704C216.074 101.897 216.728 101.244 217.534 101.244H223.376C224.182 101.244 224.836 101.897 224.836 102.704Z" fill="url(#paint50_linear_25_1437)"/>
<path d="M236.283 117.752C236.283 119.446 235.568 120.964 234.414 122.03C233.362 122.994 231.975 123.593 230.442 123.593C228.909 123.593 227.521 122.994 226.47 122.03C225.316 120.964 224.601 119.446 224.601 117.752H236.283Z" fill="url(#paint51_linear_25_1437)"/>
<path opacity="0.2" d="M234.57 121.94C233.518 122.904 232.131 123.503 230.598 123.503C229.064 123.503 227.677 122.904 226.626 121.94C227.312 120.845 228.831 120.582 230.598 120.582C232.364 120.582 233.883 120.845 234.57 121.94Z" fill="black"/>
<path d="M237.666 85.9492H206.634C204.727 85.9492 203.166 87.5095 203.166 89.4174V90.33H208.892C209.833 90.33 210.668 90.9317 210.965 91.8239L211.264 92.7191C211.66 93.9085 212.774 94.7109 214.027 94.7109H230.272C231.525 94.7109 232.639 93.9085 233.035 92.7191L233.334 91.8239C233.631 90.9317 234.466 90.33 235.407 90.33H241.133V89.4166C241.133 87.5095 239.573 85.9492 237.666 85.9492Z" fill="url(#paint52_linear_25_1437)"/>
<path opacity="0.15" d="M203.473 188.214V214.499C203.473 216.112 204.78 217.419 206.393 217.419H211.878C212.992 217.419 214.009 218.049 214.507 219.044L217.423 224.875C217.823 225.675 218.641 226.181 219.536 226.181C220.431 226.181 221.249 225.675 221.649 224.875L224.564 219.044C225.062 218.048 226.08 217.419 227.194 217.419H232.678C234.291 217.419 235.599 216.112 235.599 214.499V188.214C235.599 186.601 234.291 185.293 232.678 185.293H206.393C204.78 185.293 203.473 186.601 203.473 188.214Z" fill="black"/>
<path d="M203.473 186.844V213.129C203.473 214.742 204.78 216.05 206.393 216.05H211.878C212.992 216.05 214.009 216.679 214.507 217.674L217.423 223.505C217.823 224.305 218.641 224.811 219.536 224.811C220.431 224.811 221.249 224.305 221.649 223.505L224.564 217.674C225.062 216.678 226.08 216.05 227.194 216.05H232.678C234.291 216.05 235.599 214.742 235.599 213.129V186.844C235.599 185.231 234.291 183.923 232.678 183.923H206.393C204.78 183.923 203.473 185.231 203.473 186.844Z" fill="url(#paint53_linear_25_1437)"/>
<path d="M223.158 190.334H217.317C214.901 190.334 212.937 192.299 212.937 194.715V210.778H215.857V203.477H224.619V210.778H227.539V194.715C227.539 192.299 225.575 190.334 223.158 190.334ZM224.619 200.556H215.857V194.715C215.857 193.909 216.511 193.255 217.317 193.255H223.158C223.965 193.255 224.619 193.909 224.619 194.715V200.556Z" fill="white"/>
<path d="M221.189 163.469L222.076 166.332C222.21 166.767 222.55 167.107 222.985 167.241L225.848 168.129C226.103 168.207 226.103 168.569 225.848 168.649L222.985 169.536C222.55 169.671 222.21 170.011 222.076 170.445L221.189 173.308C221.11 173.564 220.748 173.564 220.668 173.308L219.781 170.445C219.647 170.011 219.306 169.671 218.872 169.536L216.009 168.649C215.753 168.57 215.753 168.208 216.009 168.129L218.872 167.241C219.306 167.107 219.647 166.767 219.781 166.332L220.668 163.469C220.748 163.214 221.11 163.214 221.189 163.469Z" fill="#E8E8E8"/>
<path d="M112.331 148.323H75.8242V101.594H112.331C113.944 101.594 115.252 102.902 115.252 104.515V145.402C115.252 147.015 113.944 148.323 112.331 148.323Z" fill="url(#paint54_linear_25_1437)"/>
<path d="M149.597 213.958H186.104V167.229H149.597C147.984 167.229 146.676 168.536 146.676 170.149V211.037C146.676 212.65 147.984 213.958 149.597 213.958Z" fill="url(#paint55_linear_25_1437)"/>
<defs>
<linearGradient id="paint0_linear_25_1437" x1="158.5" y1="44" x2="158.5" y2="44" gradientUnits="userSpaceOnUse">
<stop stop-color="#FFDC2E"/>
<stop offset="0.0147" stop-color="#FFDD34"/>
<stop offset="0.1575" stop-color="#FFE669"/>
<stop offset="0.302" stop-color="#FFEE97"/>
<stop offset="0.4454" stop-color="#FFF4BD"/>
<stop offset="0.5876" stop-color="#FFF9DA"/>
<stop offset="0.7282" stop-color="#FFFCEE"/>
<stop offset="0.8666" stop-color="#FFFEFB"/>
<stop offset="1" stop-color="white"/>
</linearGradient>
<linearGradient id="paint1_linear_25_1437" x1="173.595" y1="275.212" x2="173.595" y2="275.212" gradientUnits="userSpaceOnUse">
<stop stop-opacity="0.0509804"/>
<stop offset="1" stop-color="#302926" stop-opacity="0"/>
</linearGradient>
<linearGradient id="paint2_linear_25_1437" x1="159.357" y1="224.832" x2="159.357" y2="224.832" gradientUnits="userSpaceOnUse">
<stop stop-color="#DDDDDD"/>
<stop offset="0.5567" stop-color="#D9D9D9"/>
<stop offset="1" stop-color="#D0D0D0"/>
</linearGradient>
<linearGradient id="paint3_linear_25_1437" x1="188.521" y1="239.435" x2="188.521" y2="239.435" gradientUnits="userSpaceOnUse">
<stop stop-color="white"/>
<stop offset="0.5172" stop-color="#FBFBFB"/>
<stop offset="1" stop-color="#F0F0F0"/>
</linearGradient>
<linearGradient id="paint4_linear_25_1437" x1="190.445" y1="261.339" x2="190.445" y2="261.339" gradientUnits="userSpaceOnUse">
<stop stop-color="white"/>
<stop offset="0.5172" stop-color="#FBFBFB"/>
<stop offset="1" stop-color="#F0F0F0"/>
</linearGradient>
<linearGradient id="paint5_linear_25_1437" x1="211.341" y1="239.435" x2="211.341" y2="239.435" gradientUnits="userSpaceOnUse">
<stop stop-color="white"/>
<stop offset="0.5172" stop-color="#FBFBFB"/>
<stop offset="1" stop-color="#F0F0F0"/>
</linearGradient>
<linearGradient id="paint6_linear_25_1437" x1="188.381" y1="220.409" x2="188.381" y2="220.409" gradientUnits="userSpaceOnUse">
<stop stop-color="white"/>
<stop offset="0.5172" stop-color="#FBFBFB"/>
<stop offset="1" stop-color="#F0F0F0"/>
</linearGradient>
<linearGradient id="paint7_linear_25_1437" x1="216.587" y1="220.409" x2="216.587" y2="220.409" gradientUnits="userSpaceOnUse">
<stop stop-color="white"/>
<stop offset="0.5172" stop-color="#FBFBFB"/>
<stop offset="1" stop-color="#F0F0F0"/>
</linearGradient>
<linearGradient id="paint8_linear_25_1437" x1="228.721" y1="220.409" x2="228.721" y2="220.409" gradientUnits="userSpaceOnUse">
<stop stop-color="white"/>
<stop offset="0.5172" stop-color="#FBFBFB"/>
<stop offset="1" stop-color="#F0F0F0"/>
</linearGradient>
<linearGradient id="paint9_linear_25_1437" x1="212.293" y1="244.911" x2="212.293" y2="244.911" gradientUnits="userSpaceOnUse">
<stop stop-color="white"/>
<stop offset="0.5172" stop-color="#FBFBFB"/>
<stop offset="1" stop-color="#F0F0F0"/>
</linearGradient>
<linearGradient id="paint10_linear_25_1437" x1="63.3564" y1="261.574" x2="47.2349" y2="261.574" gradientUnits="userSpaceOnUse">
<stop stop-color="#B6DD54"/>
<stop offset="0.1433" stop-color="#B2DC54"/>
<stop offset="0.2918" stop-color="#A5D753"/>
<stop offset="0.4428" stop-color="#91D051"/>
<stop offset="0.5954" stop-color="#74C64F"/>
<stop offset="0.7494" stop-color="#4EB94D"/>
<stop offset="0.9024" stop-color="#21A949"/>
<stop offset="1" stop-color="#009E47"/>
</linearGradient>
<linearGradient id="paint11_linear_25_1437" x1="169.285" y1="204.314" x2="105.4" y2="204.314" gradientUnits="userSpaceOnUse">
<stop stop-color="#B6DD54"/>
<stop offset="0.1433" stop-color="#B2DC54"/>
<stop offset="0.2918" stop-color="#A5D753"/>
<stop offset="0.4428" stop-color="#91D051"/>
<stop offset="0.5954" stop-color="#74C64F"/>
<stop offset="0.7494" stop-color="#4EB94D"/>
<stop offset="0.9024" stop-color="#21A949"/>
<stop offset="1" stop-color="#009E47"/>
</linearGradient>
<linearGradient id="paint12_linear_25_1437" x1="59.3101" y1="261.31" x2="29.8103" y2="261.31" gradientUnits="userSpaceOnUse">
<stop stop-color="#302926" stop-opacity="0"/>
<stop offset="1" stop-opacity="0.0705882"/>
</linearGradient>
<linearGradient id="paint13_linear_25_1437" x1="108.061" y1="267.91" x2="42.3481" y2="267.91" gradientUnits="userSpaceOnUse">
<stop stop-color="#7C483E"/>
<stop offset="1" stop-color="#896257"/>
</linearGradient>
<linearGradient id="paint14_linear_25_1437" x1="62.7921" y1="267.91" x2="42.3481" y2="267.91" gradientUnits="userSpaceOnUse">
<stop stop-opacity="0.14902"/>
<stop offset="0.1227" stop-color="#0B0909" stop-opacity="0.133333"/>
<stop offset="0.421" stop-color="#1F1B19" stop-opacity="0.0862745"/>
<stop offset="0.7156" stop-color="#2C2523" stop-opacity="0.0431373"/>
<stop offset="1" stop-color="#302926" stop-opacity="0"/>
</linearGradient>
<linearGradient id="paint15_linear_25_1437" x1="110.981" y1="254.768" x2="39.4276" y2="254.768" gradientUnits="userSpaceOnUse">
<stop stop-color="#B16464"/>
<stop offset="1" stop-color="#936864"/>
</linearGradient>
<linearGradient id="paint16_linear_25_1437" x1="55.3463" y1="258.075" x2="55.3463" y2="258.075" gradientUnits="userSpaceOnUse">
<stop stop-opacity="0.0705882"/>
<stop offset="1" stop-color="#302926" stop-opacity="0"/>
</linearGradient>
<linearGradient id="paint17_linear_25_1437" x1="66.7922" y1="252.195" x2="45.4355" y2="252.195" gradientUnits="userSpaceOnUse">
<stop stop-color="#302926" stop-opacity="0"/>
<stop offset="0.2844" stop-color="#2C2523" stop-opacity="0.0196078"/>
<stop offset="0.579" stop-color="#1F1B19" stop-opacity="0.0392157"/>
<stop offset="0.8773" stop-color="#0B0909" stop-opacity="0.0627451"/>
<stop offset="1" stop-opacity="0.0705882"/>
</linearGradient>
<linearGradient id="paint18_linear_25_1437" x1="59.5792" y1="279.592" x2="245.378" y2="279.592" gradientUnits="userSpaceOnUse">
<stop stop-color="#19214F"/>
<stop offset="1"/>
<stop offset="1" stop-color="#14BC66"/>
</linearGradient>
<linearGradient id="paint19_linear_25_1437" x1="101.236" y1="98.8827" x2="101.236" y2="98.8827" gradientUnits="userSpaceOnUse">
<stop stop-color="#55C2FF"/>
<stop offset="0.1665" stop-color="#5EC7FF"/>
<stop offset="0.4381" stop-color="#76D4FF"/>
<stop offset="0.7789" stop-color="#9EEAFF"/>
<stop offset="1" stop-color="#BBFAFF"/>
</linearGradient>
<linearGradient id="paint20_linear_25_1437" x1="151.42" y1="56.6279" x2="110.532" y2="56.6279" gradientUnits="userSpaceOnUse">
<stop stop-color="#302926" stop-opacity="0.14902"/>
<stop offset="1" stop-opacity="0.301961"/>
</linearGradient>
<linearGradient id="paint21_linear_25_1437" x1="127.044" y1="262.983" x2="127.044" y2="262.983" gradientUnits="userSpaceOnUse">
<stop stop-color="#302926" stop-opacity="0.14902"/>
<stop offset="1" stop-opacity="0.301961"/>
</linearGradient>
<linearGradient id="paint22_linear_25_1437" x1="102.062" y1="233.594" x2="102.062" y2="233.594" gradientUnits="userSpaceOnUse">
<stop stop-color="#FFFFED" stop-opacity="0.25098"/>
<stop offset="1" stop-color="white" stop-opacity="0.501961"/>
</linearGradient>
<linearGradient id="paint23_linear_25_1437" x1="166.188" y1="233.594" x2="166.188" y2="233.594" gradientUnits="userSpaceOnUse">
<stop stop-color="#FFFFED" stop-opacity="0.25098"/>
<stop offset="1" stop-color="white" stop-opacity="0.501961"/>
</linearGradient>
<linearGradient id="paint24_linear_25_1437" x1="193.304" y1="64.1156" x2="71.7872" y2="64.1156" gradientUnits="userSpaceOnUse">
<stop stop-color="#0000A2" stop-opacity="0"/>
<stop offset="1" stop-color="#00009F" stop-opacity="0.0705882"/>
</linearGradient>
<linearGradient id="paint25_linear_25_1437" x1="75.2045" y1="178.911" x2="75.2045" y2="178.911" gradientUnits="userSpaceOnUse">
<stop stop-color="white"/>
<stop offset="0.4256" stop-color="#FCFCFC"/>
<stop offset="0.7668" stop-color="#F2F2F2"/>
<stop offset="1" stop-color="#E6E6E6"/>
</linearGradient>
<linearGradient id="paint26_linear_25_1437" x1="117.612" y1="181.824" x2="117.612" y2="181.824" gradientUnits="userSpaceOnUse">
<stop stop-color="#FF7E45"/>
<stop offset="0.1983" stop-color="#FE7A4B"/>
<stop offset="0.4578" stop-color="#FC6D5B"/>
<stop offset="0.7499" stop-color="#F85876"/>
<stop offset="1" stop-color="#F44293"/>
</linearGradient>
<linearGradient id="paint27_linear_25_1437" x1="54.0499" y1="169.422" x2="54.0499" y2="169.422" gradientUnits="userSpaceOnUse">
<stop stop-color="#F9CDAF"/>
<stop offset="0.5359" stop-color="#F8CAAB"/>
<stop offset="1" stop-color="#F7C4A1"/>
</linearGradient>
<linearGradient id="paint28_linear_25_1437" x1="55.2612" y1="170.922" x2="55.2612" y2="170.922" gradientUnits="userSpaceOnUse">
<stop stop-color="#EFBC9A"/>
<stop offset="0.7147" stop-color="#F3C09E"/>
<stop offset="1" stop-color="#F7C4A1"/>
</linearGradient>
<linearGradient id="paint29_linear_25_1437" x1="3.6507" y1="169.422" x2="3.6507" y2="169.422" gradientUnits="userSpaceOnUse">
<stop stop-color="#F9CDAF"/>
<stop offset="0.5359" stop-color="#F8CAAB"/>
<stop offset="1" stop-color="#F7C4A1"/>
</linearGradient>
<linearGradient id="paint30_linear_25_1437" x1="5.11095" y1="170.922" x2="5.11095" y2="170.922" gradientUnits="userSpaceOnUse">
<stop stop-color="#EFBC9A"/>
<stop offset="0.7147" stop-color="#F3C09E"/>
<stop offset="1" stop-color="#F7C4A1"/>
</linearGradient>
<linearGradient id="paint31_linear_25_1437" x1="62.792" y1="171.719" x2="10.2219" y2="171.719" gradientUnits="userSpaceOnUse">
<stop stop-color="#FFDEC7"/>
<stop offset="1" stop-color="#FFD8BD"/>
</linearGradient>
<linearGradient id="paint32_linear_25_1437" x1="45.9988" y1="161.371" x2="45.9988" y2="161.371" gradientUnits="userSpaceOnUse">
<stop stop-color="#FFC41D"/>
<stop offset="1" stop-color="#FF970D"/>
</linearGradient>
<linearGradient id="paint33_linear_25_1437" x1="22.6344" y1="161.371" x2="22.6344" y2="161.371" gradientUnits="userSpaceOnUse">
<stop stop-color="#FFC41D"/>
<stop offset="1" stop-color="#FF970D"/>
</linearGradient>
<linearGradient id="paint34_linear_25_1437" x1="35.0467" y1="173.367" x2="35.0467" y2="173.367" gradientUnits="userSpaceOnUse">
<stop stop-color="#FFD3BB"/>
<stop offset="1" stop-color="#FFC4B0"/>
</linearGradient>
<linearGradient id="paint35_linear_25_1437" x1="23.7295" y1="169.285" x2="23.7295" y2="169.285" gradientUnits="userSpaceOnUse">
<stop stop-color="#4C4B4B"/>
<stop offset="1" stop-color="#3A3838"/>
</linearGradient>
<linearGradient id="paint36_linear_25_1437" x1="47.094" y1="169.285" x2="47.094" y2="169.285" gradientUnits="userSpaceOnUse">
<stop stop-color="#4C4B4B"/>
<stop offset="1" stop-color="#3A3838"/>
</linearGradient>
<linearGradient id="paint37_linear_25_1437" x1="32.1262" y1="184.72" x2="32.1262" y2="184.72" gradientUnits="userSpaceOnUse">
<stop stop-color="#F9808F"/>
<stop offset="0.391" stop-color="#F97792"/>
<stop offset="1" stop-color="#F96099"/>
</linearGradient>
<linearGradient id="paint38_linear_25_1437" x1="33.7836" y1="187.927" x2="33.7836" y2="187.927" gradientUnits="userSpaceOnUse">
<stop stop-color="#EA5770"/>
<stop offset="0.5523" stop-color="#EA4F79"/>
<stop offset="1" stop-color="#EA4684"/>
</linearGradient>
<linearGradient id="paint39_linear_25_1437" x1="21.9042" y1="138.831" x2="21.9042" y2="138.831" gradientUnits="userSpaceOnUse">
<stop stop-color="#FFC41D"/>
<stop offset="0.3042" stop-color="#FFBB1A"/>
<stop offset="0.7987" stop-color="#FFA311"/>
<stop offset="1" stop-color="#FF970D"/>
</linearGradient>
<linearGradient id="paint40_linear_25_1437" x1="16.9884" y1="138.458" x2="16.9884" y2="138.458" gradientUnits="userSpaceOnUse">
<stop stop-color="#FFFFED" stop-opacity="0"/>
<stop offset="1" stop-color="white" stop-opacity="0.14902"/>
</linearGradient>
<linearGradient id="paint41_linear_25_1437" x1="140.704" y1="113.276" x2="140.704" y2="113.276" gradientUnits="userSpaceOnUse">
<stop stop-color="white"/>
<stop offset="0.4256" stop-color="#FCFCFC"/>
<stop offset="0.7668" stop-color="#F2F2F2"/>
<stop offset="1" stop-color="#E6E6E6"/>
</linearGradient>
<linearGradient id="paint42_linear_25_1437" x1="134.569" y1="117.167" x2="134.569" y2="117.167" gradientUnits="userSpaceOnUse">
<stop stop-color="#FFC41D"/>
<stop offset="0.294" stop-color="#FFC01C"/>
<stop offset="0.5985" stop-color="#FFB317"/>
<stop offset="0.9069" stop-color="#FF9F10"/>
<stop offset="1" stop-color="#FF970D"/>
</linearGradient>
<linearGradient id="paint43_linear_25_1437" x1="206.086" y1="106.698" x2="206.086" y2="106.698" gradientUnits="userSpaceOnUse">
<stop stop-color="#0079D3"/>
<stop offset="0.222" stop-color="#0070D4"/>
<stop offset="0.584" stop-color="#0058D5"/>
<stop offset="1" stop-color="#0034D8"/>
</linearGradient>
<linearGradient id="paint44_linear_25_1437" x1="208.277" y1="99.9792" x2="208.277" y2="99.9792" gradientUnits="userSpaceOnUse">
<stop stop-color="#55C2FF"/>
<stop offset="0.1665" stop-color="#5EC7FF"/>
<stop offset="0.4381" stop-color="#76D4FF"/>
<stop offset="0.7789" stop-color="#9EEAFF"/>
<stop offset="1" stop-color="#BBFAFF"/>
</linearGradient>
<linearGradient id="paint45_linear_25_1437" x1="229.78" y1="81.1541" x2="229.78" y2="81.1541" gradientUnits="userSpaceOnUse">
<stop stop-color="#E6E6E6"/>
<stop offset="0.4062" stop-color="#E2E2E2"/>
<stop offset="0.8264" stop-color="#D5D5D5"/>
<stop offset="1" stop-color="#CECECE"/>
</linearGradient>
<linearGradient id="paint46_linear_25_1437" x1="235.239" y1="75.8673" x2="225.424" y2="75.8673" gradientUnits="userSpaceOnUse">
<stop stop-color="#FF7E45"/>
<stop offset="0.1983" stop-color="#FE7A4B"/>
<stop offset="0.4578" stop-color="#FC6D5B"/>
<stop offset="0.7499" stop-color="#F85876"/>
<stop offset="1" stop-color="#F44293"/>
</linearGradient>
<linearGradient id="paint47_linear_25_1437" x1="232.736" y1="109.905" x2="232.736" y2="109.905" gradientUnits="userSpaceOnUse">
<stop stop-color="#4C4B4B"/>
<stop offset="1" stop-color="#3A3838"/>
</linearGradient>
<linearGradient id="paint48_linear_25_1437" x1="219.518" y1="109.905" x2="219.518" y2="109.905" gradientUnits="userSpaceOnUse">
<stop stop-color="#4C4B4B"/>
<stop offset="1" stop-color="#3A3838"/>
</linearGradient>
<linearGradient id="paint49_linear_25_1437" x1="231.641" y1="101.974" x2="231.641" y2="101.974" gradientUnits="userSpaceOnUse">
<stop stop-color="#0079D3"/>
<stop offset="0.222" stop-color="#0070D4"/>
<stop offset="0.584" stop-color="#0058D5"/>
<stop offset="1" stop-color="#0034D8"/>
</linearGradient>
<linearGradient id="paint50_linear_25_1437" x1="218.265" y1="101.974" x2="218.265" y2="101.974" gradientUnits="userSpaceOnUse">
<stop stop-color="#0079D3"/>
<stop offset="0.222" stop-color="#0070D4"/>
<stop offset="0.584" stop-color="#0058D5"/>
<stop offset="1" stop-color="#0034D8"/>
</linearGradient>
<linearGradient id="paint51_linear_25_1437" x1="236.283" y1="120.672" x2="224.601" y2="120.672" gradientUnits="userSpaceOnUse">
<stop stop-color="#259CE5"/>
<stop offset="0.018" stop-color="#259BE4"/>
<stop offset="0.6261" stop-color="#2183D3"/>
<stop offset="1" stop-color="#1F7ACC"/>
</linearGradient>
<linearGradient id="paint52_linear_25_1437" x1="241.133" y1="90.3301" x2="203.166" y2="90.3301" gradientUnits="userSpaceOnUse">
<stop stop-color="#FF7E45"/>
<stop offset="0.1983" stop-color="#FE7A4B"/>
<stop offset="0.4578" stop-color="#FC6D5B"/>
<stop offset="0.7499" stop-color="#F85876"/>
<stop offset="1" stop-color="#F44293"/>
</linearGradient>
<linearGradient id="paint53_linear_25_1437" x1="211.504" y1="194.145" x2="211.504" y2="194.145" gradientUnits="userSpaceOnUse">
<stop stop-color="#FF7E45"/>
<stop offset="0.1983" stop-color="#FE7A4B"/>
<stop offset="0.4578" stop-color="#FC6D5B"/>
<stop offset="0.7499" stop-color="#F85876"/>
<stop offset="1" stop-color="#F44293"/>
</linearGradient>
<linearGradient id="paint54_linear_25_1437" x1="85.6811" y1="113.276" x2="85.6811" y2="113.276" gradientUnits="userSpaceOnUse">
<stop stop-color="#FFFFED" stop-opacity="0.14902"/>
<stop offset="1" stop-color="white" stop-opacity="0.301961"/>
</linearGradient>
<linearGradient id="paint55_linear_25_1437" x1="156.533" y1="178.911" x2="156.533" y2="178.911" gradientUnits="userSpaceOnUse">
<stop stop-color="#FFFFED" stop-opacity="0.14902"/>
<stop offset="1" stop-color="white" stop-opacity="0.301961"/>
</linearGradient>
</defs>
</svg>
