<svg width="18" height="18" viewBox="0 0 18 18" fill="none" xmlns="http://www.w3.org/2000/svg">
<path d="M16.327 7.15116L15.3243 6.90071C15.2239 6.59535 15.1014 6.29769 14.9578 6.01008L15.488 5.12639C15.6984 4.77671 15.6432 4.32862 15.3543 4.04042L13.9595 2.64583C13.6712 2.35705 13.2233 2.3019 12.8736 2.51214L11.9899 3.04233C11.7023 2.89874 11.4046 2.77623 11.0992 2.67579L10.849 1.67316C10.7504 1.27715 10.3945 0.9994 9.98638 1H8.01374C7.60578 0.999563 7.25006 1.27728 7.15151 1.67316L6.90107 2.67579C6.59571 2.77623 6.29805 2.89874 6.01044 3.04233L5.12656 2.51215C4.7769 2.30169 4.32878 2.35685 4.0406 2.64583L2.64583 4.0406C2.3569 4.3288 2.30173 4.77689 2.51215 5.12656L3.04233 6.01026C2.89874 6.29786 2.77623 6.59553 2.67579 6.90089L1.67316 7.15116C1.27715 7.24974 0.9994 7.60565 1 8.01374V9.98642C0.999563 10.3944 1.27728 10.7501 1.67316 10.8486L2.67579 11.0991C2.77623 11.4045 2.89874 11.7021 3.04233 11.9897L2.51215 12.8736C2.30173 13.2232 2.3569 13.6713 2.64583 13.9595L4.0406 15.3543C4.3287 15.6434 4.77694 15.6986 5.12656 15.488L6.01026 14.9578C6.29786 15.1014 6.59553 15.2239 6.90089 15.3243L7.15133 16.327C7.2499 16.7229 7.60571 17.0006 8.01374 17.0001L9.98642 17.0001C10.3944 17.0006 10.7501 16.7228 10.8486 16.327L11.0991 15.3243C11.4045 15.2239 11.7021 15.1014 11.9897 14.9578L12.8734 15.488C13.2231 15.6983 13.6712 15.6432 13.9594 15.3543L15.3541 13.9595C15.6431 13.6713 15.6983 13.2232 15.4878 12.8736L14.9577 11.9899C15.1012 11.7023 15.2238 11.4046 15.3242 11.0992L16.3268 10.8488C16.7228 10.7503 17.0006 10.3944 17.0001 9.98638L17.0001 8.01374C17.0007 7.60565 16.723 7.24974 16.327 7.15116ZM16.1112 9.98638L14.866 10.2975C14.7123 10.3359 14.5906 10.4532 14.5467 10.6054C14.4289 11.017 14.2653 11.414 14.0591 11.7891C13.9823 11.9278 13.9853 12.0969 14.0669 12.2328L14.7257 13.3309L13.331 14.7257L12.2329 14.0668C12.097 13.9851 11.9279 13.9821 11.7891 14.0589C11.4141 14.2652 11.017 14.4289 10.6055 14.5468C10.4533 14.5907 10.336 14.7123 10.2976 14.866L9.98638 16.1112H8.01374L7.70263 14.866C7.66421 14.7123 7.54688 14.5906 7.39467 14.5467C6.98317 14.4289 6.58616 14.2653 6.21106 14.0591C6.07233 13.9823 5.90322 13.9853 5.76728 14.0669L4.66918 14.7257L3.27442 13.331L3.93336 12.2329C4.01498 12.097 4.01796 11.9279 3.94118 11.7891C3.73489 11.4141 3.57126 11.017 3.45335 10.6055C3.40943 10.4533 3.2878 10.336 3.13411 10.2976L1.8889 9.98638V8.01374L3.13415 7.70263C3.28785 7.66421 3.40947 7.54688 3.4534 7.39467C3.57125 6.98316 3.73482 6.58615 3.94105 6.21106C4.01783 6.07234 4.01485 5.90321 3.93322 5.76728L3.27437 4.66918L4.66914 3.27442L5.76719 3.93336C5.90309 4.01508 6.07228 4.01806 6.21097 3.94118C6.58606 3.73489 6.98307 3.57126 7.39458 3.45335C7.54679 3.40943 7.66412 3.2878 7.70254 3.13411L8.01374 1.8889H9.98642L10.2975 3.13415C10.336 3.28785 10.4533 3.40947 10.6055 3.4534C11.017 3.57125 11.414 3.73482 11.7891 3.94105C11.9279 4.01761 12.0969 4.01463 12.2329 3.93322L13.331 3.27437L14.7257 4.66914L14.0668 5.76719C13.9851 5.90312 13.9822 6.07225 14.0589 6.21097C14.2652 6.58606 14.4289 6.98307 14.5468 7.39458C14.5907 7.54679 14.7123 7.66412 14.866 7.70254L16.1113 8.01365L16.1112 9.98638ZM9.00006 5.88893C7.28183 5.88893 5.88893 7.28183 5.88893 9.00006C5.88893 10.7183 7.28183 12.1112 9.00006 12.1112C10.7183 12.1112 12.1112 10.7183 12.1112 9.00006C12.1093 7.28263 10.7175 5.89086 9.00006 5.88893ZM9.00006 11.2223C7.77275 11.2223 6.77782 10.2274 6.77782 9.00006C6.77782 7.77275 7.77275 6.77782 9.00006 6.77782C10.2274 6.77782 11.2223 7.77275 11.2223 9.00006C11.2208 10.2268 10.2268 11.2209 9.00006 11.2223Z" fill="#19214F" stroke="#19214F" stroke-width="0.5"/>
</svg>
