<svg width="18" height="12" viewBox="0 0 18 12" fill="none" xmlns="http://www.w3.org/2000/svg">
<path d="M1.35 12C0.99 12 0.675 11.8875 0.405 11.6625C0.135 11.4375 0 11.175 0 10.875V1.125C0 0.825 0.135 0.5625 0.405 0.3375C0.675 0.1125 0.99 0 1.35 0H13.05C13.41 0 13.725 0.1125 13.995 0.3375C14.265 0.5625 14.4 0.825 14.4 1.125V5.15625L18 2.15625V9.84375L14.4 6.84375V10.875C14.4 11.175 14.265 11.4375 13.995 11.6625C13.725 11.8875 13.41 12 13.05 12H1.35ZM1.35 10.875H13.05V1.125H1.35V10.875Z" fill="#19214F"/>
</svg>
