<svg width="10" height="12" viewBox="0 0 10 12" fill="none" xmlns="http://www.w3.org/2000/svg">
<path d="M4.85376 11.9487C4.73608 11.9487 4.63745 11.9105 4.5603 11.8353C4.52148 11.7997 0.651855 8.21661 0.105469 5.81512C0.105469 5.79877 0.102295 5.78516 0.0993652 5.77307C0.0964355 5.76123 0.0944824 5.7522 0.0944824 5.74316C0.0317383 5.43707 0 5.11969 0 4.79993C0 2.17572 2.17749 0.0407715 4.85376 0.0407715C6.16919 0.0407715 7.40088 0.550049 8.32202 1.47485C9.21411 2.37079 9.70264 3.55164 9.69751 4.79993C9.69751 5.1543 9.66235 5.49249 9.59326 5.80524C9.59326 5.81458 9.59082 5.82379 9.58838 5.83356C9.58496 5.84637 9.58228 5.85651 9.58228 5.86646C9.10522 7.91809 6.09277 10.9296 5.18091 11.8037L5.14795 11.8353C5.06323 11.9084 4.95874 11.9487 4.85376 11.9487ZM4.84375 0.87146C2.64136 0.87146 0.849609 2.62891 0.849609 4.78912C0.849609 5.04047 0.876953 5.30219 0.93335 5.58923C0.943359 5.60992 0.943359 5.61957 0.943359 5.64056C1.34668 7.40442 4.03833 10.1453 4.85376 10.9434C5.66455 10.1496 8.34644 7.42426 8.75439 5.68195V5.65137C8.81714 5.37134 8.84888 5.08136 8.84888 4.78912C8.84888 2.62891 7.05225 0.87146 4.84375 0.87146Z" fill="#AAB2B7"/>
<path d="M4.854 5.89709C3.95825 5.89709 3.22949 5.18414 3.22949 4.30774C3.22949 3.43079 3.95825 2.71741 4.854 2.71741C5.75024 2.71741 6.47949 3.43079 6.47949 4.30774C6.47949 5.18414 5.75024 5.89709 4.854 5.89709ZM4.84961 3.53009C4.43066 3.53009 4.08984 3.88019 4.08984 4.31042C4.08984 4.74017 4.43066 5.08984 4.84961 5.08984C5.26904 5.08984 5.61011 4.74017 5.61011 4.31042C5.61011 3.88019 5.26904 3.53009 4.84961 3.53009Z" fill="#AAB2B7"/>
</svg>
